EmojiTemplate.ufo
<glyph name="arrowupdn" format="1">
  <advance width="1000"/>
  <unicode hex="2195"/>
  <outline>
    <contour>
      <point x="503" y="-264" type="line"/>
      <point x="847" y="33" type="line"/>
      <point x="807" y="78" type="line"/>
      <point x="532" y="-166" type="line"/>
      <point x="532" y="668" type="line"/>
      <point x="807" y="424" type="line"/>
      <point x="847" y="469" type="line"/>
      <point x="503" y="766" type="line"/>
      <point x="497" y="766" type="line"/>
      <point x="153" y="469" type="line"/>
      <point x="193" y="424" type="line"/>
      <point x="468" y="668" type="line"/>
      <point x="468" y="-166" type="line"/>
      <point x="193" y="78" type="line"/>
      <point x="153" y="33" type="line"/>
      <point x="497" y="-264" type="line"/>
    </contour>
  </outline>
</glyph>
<glyph name="spade" format="1">
  <advance width="1000"/>
  <unicode hex="2660"/>
  <outline>
    <contour>
      <point x="195" y="-244" type="line"/>
      <point x="805" y="-244" type="line"/>
      <point x="805" y="-204" type="line"/>
      <point x="658" y="-186"/>
      <point x="555" y="-122"/>
      <point x="522" y="118" type="curve"/>
      <point x="478" y="118" type="line"/>
      <point x="445" y="-122"/>
      <point x="342" y="-186"/>
      <point x="195" y="-204" type="curve"/>
    </contour>
    <contour>
      <point x="462" y="86" type="curve"/>
      <point x="538" y="86" type="line"/>
      <point x="586" y="-6"/>
      <point x="666" y="-34"/>
      <point x="754" y="-34" type="curve" smooth="yes"/>
      <point x="872" y="-34"/>
      <point x="958" y="24"/>
      <point x="958" y="148" type="curve" smooth="yes"/>
      <point x="958" y="310"/>
      <point x="862" y="414"/>
      <point x="502" y="730" type="curve"/>
      <point x="498" y="730" type="line"/>
      <point x="138" y="414"/>
      <point x="42" y="310"/>
      <point x="42" y="148" type="curve" smooth="yes"/>
      <point x="42" y="24"/>
      <point x="130" y="-34"/>
      <point x="246" y="-34" type="curve" smooth="yes"/>
      <point x="334" y="-34"/>
      <point x="414" y="-6"/>
    </contour>
  </outline>
</glyph>
<glyph name="club" format="1">
  <advance width="1000"/>
  <unicode hex="2663"/>
  <outline>
    <contour>
      <point x="195" y="-240" type="line"/>
      <point x="805" y="-240" type="line"/>
      <point x="805" y="-200" type="line"/>
      <point x="658" y="-182"/>
      <point x="555" y="-118"/>
      <point x="522" y="122" type="curve"/>
      <point x="478" y="122" type="line"/>
      <point x="445" y="-118"/>
      <point x="342" y="-182"/>
      <point x="195" y="-200" type="curve"/>
    </contour>
    <contour>
      <point x="258" y="-24" type="curve" smooth="yes"/>
      <point x="339" y="-24"/>
      <point x="418" y="4"/>
      <point x="462" y="90" type="curve"/>
      <point x="538" y="90" type="line"/>
      <point x="582" y="4"/>
      <point x="661" y="-24"/>
      <point x="742" y="-24" type="curve" smooth="yes"/>
      <point x="872" y="-24"/>
      <point x="958" y="62"/>
      <point x="958" y="184" type="curve" smooth="yes"/>
      <point x="958" y="306"/>
      <point x="864" y="370"/>
      <point x="740" y="370" type="curve" smooth="yes"/>
      <point x="704" y="370"/>
      <point x="669" y="366"/>
      <point x="622" y="344" type="curve"/>
      <point x="615" y="350" type="line"/>
      <point x="718" y="432"/>
      <point x="733" y="502"/>
      <point x="733" y="550" type="curve" smooth="yes"/>
      <point x="733" y="648"/>
      <point x="630" y="720"/>
      <point x="500" y="720" type="curve" smooth="yes"/>
      <point x="370" y="720"/>
      <point x="267" y="648"/>
      <point x="267" y="550" type="curve" smooth="yes"/>
      <point x="267" y="502"/>
      <point x="282" y="432"/>
      <point x="385" y="350" type="curve"/>
      <point x="378" y="344" type="line"/>
      <point x="331" y="366"/>
      <point x="296" y="370"/>
      <point x="260" y="370" type="curve" smooth="yes"/>
      <point x="136" y="370"/>
      <point x="42" y="306"/>
      <point x="42" y="184" type="curve" smooth="yes"/>
      <point x="42" y="62"/>
      <point x="128" y="-24"/>
    </contour>
  </outline>
</glyph>
<glyph name="heart" format="1">
  <advance width="1000"/>
  <unicode hex="2665"/>
  <outline>
    <contour>
      <point x="502" y="-256" type="line"/>
      <point x="886" y="94"/>
      <point x="958" y="266"/>
      <point x="958" y="456" type="curve" smooth="yes"/>
      <point x="958" y="630"/>
      <point x="860" y="720"/>
      <point x="733" y="720" type="curve" smooth="yes"/>
      <point x="632" y="720"/>
      <point x="548" y="678"/>
      <point x="502" y="560" type="curve"/>
      <point x="498" y="560" type="line"/>
      <point x="452" y="678"/>
      <point x="373" y="720"/>
      <point x="267" y="720" type="curve" smooth="yes"/>
      <point x="140" y="720"/>
      <point x="42" y="630"/>
      <point x="42" y="456" type="curve" smooth="yes"/>
      <point x="42" y="266"/>
      <point x="114" y="94"/>
      <point x="498" y="-256" type="curve"/>
    </contour>
  </outline>
</glyph>
<glyph name="diamond" format="1">
  <advance width="1000"/>
  <unicode hex="2666"/>
  <outline>
    <contour>
      <point x="502" y="-260" type="line"/>
      <point x="917" y="234" type="line"/>
      <point x="917" y="240" type="line"/>
      <point x="502" y="730" type="line"/>
      <point x="498" y="730" type="line"/>
      <point x="83" y="240" type="line"/>
      <point x="83" y="234" type="line"/>
      <point x="498" y="-260" type="line"/>
    </contour>
  </outline>
</glyph>
<glyph name="arrowdownleft" format="1">
  <advance width="1000"/>
  <outline>
    <contour>
      <point x="178" y="-80" type="line"/>
      <point x="807" y="-75" type="line"/>
      <point x="805" y="-11" type="line"/>
      <point x="275" y="-25" type="line"/>
      <point x="847" y="549" type="line"/>
      <point x="802" y="594" type="line"/>
      <point x="228" y="22" type="line"/>
      <point x="242" y="552" type="line"/>
      <point x="178" y="554" type="line"/>
      <point x="173" y="-75" type="line"/>
    </contour>
  </outline>
</glyph>
<glyph name="baguette" format="1">
  <advance width="1000"/>
  <outline>
    <contour>
      <point x="279" y="-201" type="curve" smooth="yes"/>
      <point x="395" y="-201"/>
      <point x="554" y="-117"/>
      <point x="710" y="38" type="curve" smooth="yes"/>
      <point x="866" y="195"/>
      <point x="952" y="354"/>
      <point x="952" y="471" type="curve" smooth="yes"/>
      <point x="952" y="606"/>
      <point x="856" y="701"/>
      <point x="721" y="701" type="curve" smooth="yes"/>
      <point x="605" y="701"/>
      <point x="446" y="617"/>
      <point x="290" y="462" type="curve" smooth="yes"/>
      <point x="134" y="305"/>
      <point x="48" y="146"/>
      <point x="48" y="29" type="curve" smooth="yes"/>
      <point x="48" y="-106"/>
      <point x="144" y="-201"/>
    </contour>
    <contour>
      <point x="276" y="-148" type="curve" smooth="yes"/>
      <point x="178" y="-148"/>
      <point x="108" y="-76"/>
      <point x="108" y="26" type="curve" smooth="yes"/>
      <point x="108" y="126"/>
      <point x="183" y="273"/>
      <point x="330" y="420" type="curve" smooth="yes"/>
      <point x="479" y="569"/>
      <point x="624" y="648"/>
      <point x="724" y="648" type="curve" smooth="yes"/>
      <point x="822" y="648"/>
      <point x="892" y="576"/>
      <point x="892" y="474" type="curve" smooth="yes"/>
      <point x="892" y="374"/>
      <point x="817" y="227"/>
      <point x="670" y="80" type="curve" smooth="yes"/>
      <point x="521" y="-69"/>
      <point x="376" y="-148"/>
    </contour>
    <contour>
      <point x="454" y="-1" type="line"/>
      <point x="512" y="108"/>
      <point x="359" y="261"/>
      <point x="250" y="203" type="curve"/>
    </contour>
    <contour>
      <point x="574" y="119" type="line"/>
      <point x="632" y="228"/>
      <point x="479" y="381"/>
      <point x="370" y="323" type="curve"/>
    </contour>
    <contour>
      <point x="694" y="239" type="line"/>
      <point x="752" y="348"/>
      <point x="599" y="501"/>
      <point x="490" y="443" type="curve"/>
    </contour>
  </outline>
</glyph>
<glyph name="deer" format="1">
  <advance width="1000"/>
  <outline>
    <contour>
      <point x="943" y="33" type="curve" smooth="yes"/>
      <point x="943" y="48"/>
      <point x="931" y="52"/>
      <point x="918" y="60" type="curve" smooth="yes"/>
      <point x="891" y="78"/>
      <point x="865" y="103"/>
      <point x="865" y="148" type="curve" smooth="yes"/>
      <point x="865" y="183"/>
      <point x="897" y="206"/>
      <point x="897" y="237" type="curve"/>
      <point x="886" y="279" type="line"/>
      <point x="873" y="173"/>
      <point x="892" y="148"/>
      <point x="898" y="148" type="curve" smooth="yes"/>
      <point x="919" y="148"/>
      <point x="937" y="218"/>
      <point x="937" y="303" type="curve" smooth="yes"/>
      <point x="937" y="348"/>
      <point x="921" y="385"/>
      <point x="903" y="385" type="curve" smooth="yes"/>
      <point x="882" y="385"/>
      <point x="840" y="447"/>
      <point x="746" y="447" type="curve" smooth="yes"/>
      <point x="684" y="447"/>
      <point x="600" y="410"/>
      <point x="507" y="410" type="curve" smooth="yes"/>
      <point x="389" y="410"/>
      <point x="317" y="431"/>
      <point x="287" y="461" type="curve" smooth="yes"/>
      <point x="264" y="484"/>
      <point x="251" y="511"/>
      <point x="251" y="554" type="curve" smooth="yes"/>
      <point x="251" y="568"/>
      <point x="239" y="528"/>
      <point x="225" y="528" type="curve" smooth="yes"/>
      <point x="190" y="528"/>
      <point x="163" y="494"/>
      <point x="163" y="454" type="curve" smooth="yes"/>
      <point x="163" y="366"/>
      <point x="209" y="331"/>
      <point x="228" y="282" type="curve" smooth="yes"/>
      <point x="259" y="202"/>
      <point x="296" y="135"/>
      <point x="383" y="135" type="curve" smooth="yes"/>
      <point x="427" y="135"/>
      <point x="453" y="155"/>
      <point x="487" y="155" type="curve" smooth="yes"/>
      <point x="499" y="155"/>
      <point x="545" y="146"/>
      <point x="599" y="146" type="curve" smooth="yes"/>
      <point x="614" y="146"/>
      <point x="653" y="153"/>
      <point x="694" y="170" type="curve"/>
      <point x="729" y="106"/>
      <point x="825" y="79"/>
      <point x="825" y="-27" type="curve" smooth="yes"/>
      <point x="825" y="-82"/>
      <point x="795" y="-133"/>
      <point x="767" y="-179" type="curve"/>
      <point x="751" y="-219" type="line"/>
      <point x="805" y="-219" type="line"/>
      <point x="803" y="-181" type="line"/>
      <point x="889" y="-45" type="line"/>
      <point x="877" y="-40" type="line"/>
      <point x="854" y="-202" type="line"/>
      <point x="839" y="-243" type="line"/>
      <point x="889" y="-243" type="line"/>
      <point x="891" y="-208" type="line"/>
      <point x="934" y="18"/>
      <point x="943" y="23"/>
    </contour>
    <contour>
      <point x="323" y="-19" type="line"/>
      <point x="312" y="-162" type="line"/>
      <point x="298" y="-218" type="line"/>
      <point x="353" y="-216" type="line"/>
      <point x="349" y="-171" type="line"/>
      <point x="377" y="-10" type="line"/>
      <point x="399" y="136" type="line"/>
      <point x="384" y="136" type="line"/>
      <point x="415" y="-36" type="line"/>
      <point x="487" y="-168" type="line"/>
      <point x="496" y="-215" type="line"/>
      <point x="540" y="-194" type="line"/>
      <point x="525" y="-155" type="line"/>
      <point x="467" y="-12" type="line"/>
      <point x="493" y="172" type="line"/>
      <point x="299" y="190" type="line"/>
    </contour>
    <contour>
      <point x="191" y="482" type="curve"/>
      <point x="225" y="482"/>
      <point x="253" y="530"/>
      <point x="253" y="588" type="curve" smooth="yes"/>
      <point x="253" y="613"/>
      <point x="286" y="620"/>
      <point x="307" y="625" type="curve" smooth="yes"/>
      <point x="333" y="631"/>
      <point x="358" y="652"/>
      <point x="358" y="678" type="curve" smooth="yes"/>
      <point x="358" y="692"/>
      <point x="351" y="696"/>
      <point x="330" y="696" type="curve" smooth="yes"/>
      <point x="295" y="696"/>
      <point x="242" y="646"/>
      <point x="225" y="646" type="curve" smooth="yes"/>
      <point x="212" y="646"/>
      <point x="204" y="652"/>
      <point x="191" y="652" type="curve" smooth="yes"/>
      <point x="178" y="652"/>
      <point x="170" y="646"/>
      <point x="157" y="646" type="curve" smooth="yes"/>
      <point x="140" y="646"/>
      <point x="87" y="696"/>
      <point x="52" y="696" type="curve" smooth="yes"/>
      <point x="31" y="696"/>
      <point x="24" y="692"/>
      <point x="24" y="678" type="curve" smooth="yes"/>
      <point x="24" y="652"/>
      <point x="49" y="631"/>
      <point x="75" y="625" type="curve" smooth="yes"/>
      <point x="96" y="620"/>
      <point x="129" y="613"/>
      <point x="129" y="588" type="curve" smooth="yes"/>
      <point x="129" y="530"/>
      <point x="157" y="482"/>
    </contour>
  </outline>
</glyph>
<glyph name="facegrinningsmilingeyes" format="1">
  <advance width="1000"/>
  <outline>
    <contour>
      <point x="243" y="275" type="line"/>
      <point x="247" y="419"/>
      <point x="287" y="475"/>
      <point x="357" y="475" type="curve" smooth="yes"/>
      <point x="427" y="475"/>
      <point x="467" y="419"/>
      <point x="470" y="275" type="curve"/>
      <point x="417" y="272" type="line"/>
      <point x="413" y="345"/>
      <point x="397" y="375"/>
      <point x="357" y="375" type="curve" smooth="yes"/>
      <point x="317" y="375"/>
      <point x="300" y="345"/>
      <point x="297" y="272" type="curve"/>
    </contour>
    <contour>
      <point x="530" y="275" type="line"/>
      <point x="533" y="419"/>
      <point x="573" y="475"/>
      <point x="643" y="475" type="curve" smooth="yes"/>
      <point x="713" y="475"/>
      <point x="753" y="419"/>
      <point x="757" y="275" type="curve"/>
      <point x="703" y="272" type="line"/>
      <point x="700" y="345"/>
      <point x="683" y="375"/>
      <point x="643" y="375" type="curve" smooth="yes"/>
      <point x="603" y="375"/>
      <point x="587" y="345"/>
      <point x="583" y="272" type="curve"/>
    </contour>
    <component base="face"/>
    <component base="grin"/>
  </outline>
</glyph>
<glyph name="facesneezing" format="1">
  <advance width="1000"/>
  <outline>
    <contour>
      <point x="308" y="470" type="line"/>
      <point x="389" y="429"/>
      <point x="458" y="384"/>
      <point x="458" y="338" type="curve" smooth="yes"/>
      <point x="458" y="282"/>
      <point x="408" y="262"/>
      <point x="278" y="258" type="curve"/>
      <point x="274" y="310" type="line"/>
      <point x="351" y="313"/>
      <point x="384" y="316"/>
      <point x="384" y="346" type="curve" smooth="yes"/>
      <point x="384" y="367"/>
      <point x="335" y="393"/>
      <point x="282" y="420" type="curve"/>
    </contour>
    <contour>
      <point x="722" y="258" type="line"/>
      <point x="592" y="262"/>
      <point x="542" y="282"/>
      <point x="542" y="338" type="curve" smooth="yes"/>
      <point x="542" y="384"/>
      <point x="612" y="429"/>
      <point x="692" y="470" type="curve"/>
      <point x="718" y="420" type="line"/>
      <point x="666" y="394"/>
      <point x="616" y="367"/>
      <point x="616" y="346" type="curve" smooth="yes"/>
      <point x="616" y="316"/>
      <point x="648" y="313"/>
      <point x="726" y="310" type="curve"/>
    </contour>
    <contour>
      <point x="501" y="-70" type="curve" smooth="yes"/>
      <point x="538" y="-70"/>
      <point x="570" y="-42"/>
      <point x="570" y="0" type="curve" smooth="yes"/>
      <point x="570" y="42"/>
      <point x="538" y="70"/>
      <point x="501" y="70" type="curve" smooth="yes"/>
      <point x="464" y="70"/>
      <point x="430" y="42"/>
      <point x="430" y="0" type="curve" smooth="yes"/>
      <point x="430" y="-42"/>
      <point x="464" y="-70"/>
    </contour>
    <contour>
      <point x="431" y="140" type="curve" smooth="yes"/>
      <point x="457" y="140"/>
      <point x="490" y="153"/>
      <point x="490" y="170" type="curve" smooth="yes"/>
      <point x="490" y="187"/>
      <point x="457" y="200"/>
      <point x="431" y="200" type="curve" smooth="yes"/>
      <point x="404" y="200"/>
      <point x="390" y="187"/>
      <point x="390" y="170" type="curve" smooth="yes"/>
      <point x="390" y="153"/>
      <point x="404" y="140"/>
    </contour>
    <contour>
      <point x="561" y="140" type="curve" smooth="yes"/>
      <point x="587" y="140"/>
      <point x="600" y="153"/>
      <point x="600" y="170" type="curve" smooth="yes"/>
      <point x="600" y="187"/>
      <point x="587" y="200"/>
      <point x="561" y="200" type="curve" smooth="yes"/>
      <point x="534" y="200"/>
      <point x="500" y="187"/>
      <point x="500" y="170" type="curve" smooth="yes"/>
      <point x="500" y="153"/>
      <point x="534" y="140"/>
    </contour>
    <contour>
      <point x="334" y="-228" type="line"/>
      <point x="376" y="-250" type="line"/>
      <point x="460" y="-86" type="line"/>
      <point x="420" y="-64" type="line"/>
    </contour>
    <contour>
      <point x="666" y="-228" type="line"/>
      <point x="580" y="-64" type="line"/>
      <point x="540" y="-86" type="line"/>
      <point x="624" y="-250" type="line"/>
    </contour>
    <component base="face"/>
  </outline>
</glyph>
<glyph name="fencer" format="1">
  <advance width="1000"/>
  <outline>
    <contour>
      <point x="153" y="201"/>
      <point x="137" y="157"/>
      <point x="157" y="118" type="curve"/>
      <point x="147" y="62"/>
      <point x="143" y="19"/>
      <point x="139" y="-36" type="curve"/>
      <point x="105" y="-96"/>
      <point x="74" y="-158"/>
      <point x="48" y="-220" type="curve"/>
      <point x="105" y="-250" type="line"/>
      <point x="154" y="-183"/>
      <point x="181" y="-150"/>
      <point x="217" y="-100" type="curve"/>
      <point x="226" y="-85"/>
      <point x="236" y="-68"/>
      <point x="241" y="-49" type="curve"/>
      <point x="259" y="-5"/>
      <point x="271" y="39"/>
      <point x="283" y="114" type="curve"/>
      <point x="257" y="106" type="line"/>
      <point x="296" y="47"/>
      <point x="349" y="32"/>
      <point x="391" y="5" type="curve"/>
      <point x="362" y="-43"/>
      <point x="373" y="-121"/>
      <point x="355" y="-201" type="curve"/>
      <point x="426" y="-217" type="line"/>
      <point x="453" y="-137"/>
      <point x="472" y="-56"/>
      <point x="485" y="24" type="curve"/>
      <point x="489" y="43"/>
      <point x="487" y="59"/>
      <point x="475" y="68" type="curve"/>
      <point x="434" y="112"/>
      <point x="386" y="153"/>
      <point x="333" y="193" type="curve"/>
      <point x="347" y="231"/>
      <point x="373" y="270"/>
      <point x="383" y="310" type="curve"/>
      <point x="390" y="310" type="line"/>
      <point x="398" y="288"/>
      <point x="408" y="270"/>
      <point x="422" y="254" type="curve"/>
      <point x="473" y="218"/>
      <point x="526" y="191"/>
      <point x="581" y="175" type="curve"/>
      <point x="610" y="225" type="line"/>
      <point x="555" y="263"/>
      <point x="530" y="302"/>
      <point x="473" y="322" type="curve"/>
      <point x="472" y="372"/>
      <point x="457" y="421"/>
      <point x="426" y="471" type="curve"/>
      <point x="279" y="520" type="line"/>
      <point x="244" y="525"/>
      <point x="206" y="518"/>
      <point x="163" y="499" type="curve"/>
      <point x="163" y="540"/>
      <point x="148" y="577"/>
      <point x="125" y="641" type="curve"/>
      <point x="65" y="627" type="line"/>
      <point x="75" y="555"/>
      <point x="75" y="501"/>
      <point x="96" y="434" type="curve" smooth="yes"/>
      <point x="100" y="420"/>
      <point x="109" y="410"/>
      <point x="128" y="410" type="curve" smooth="yes"/>
      <point x="159" y="408"/>
      <point x="190" y="411"/>
      <point x="221" y="418" type="curve"/>
      <point x="222" y="413" type="line"/>
      <point x="202" y="352"/>
      <point x="199" y="291"/>
      <point x="177" y="230" type="curve"/>
    </contour>
    <contour>
      <point x="410" y="518" type="curve" smooth="yes"/>
      <point x="452" y="518"/>
      <point x="487" y="552"/>
      <point x="487" y="595" type="curve" smooth="yes"/>
      <point x="487" y="638"/>
      <point x="453" y="672"/>
      <point x="410" y="672" type="curve" smooth="yes"/>
      <point x="367" y="672"/>
      <point x="333" y="638"/>
      <point x="333" y="595" type="curve" smooth="yes"/>
      <point x="333" y="552"/>
      <point x="369" y="518"/>
    </contour>
    <contour>
      <point x="640" y="283" type="line"/>
      <point x="772" y="208" type="line"/>
      <point x="745" y="271" type="line"/>
      <point x="938" y="612" type="line"/>
      <point x="922" y="621" type="line"/>
      <point x="715" y="292" type="line"/>
    </contour>
    <contour>
      <point x="665" y="127" type="curve" smooth="yes"/>
      <point x="690" y="127"/>
      <point x="711" y="147"/>
      <point x="711" y="173" type="curve" smooth="yes"/>
      <point x="711" y="199"/>
      <point x="691" y="219"/>
      <point x="665" y="219" type="curve" smooth="yes"/>
      <point x="639" y="219"/>
      <point x="619" y="199"/>
      <point x="619" y="173" type="curve" smooth="yes"/>
      <point x="619" y="147"/>
      <point x="640" y="127"/>
    </contour>
    <contour>
      <point x="79" y="659" type="curve" smooth="yes"/>
      <point x="104" y="659"/>
      <point x="125" y="679"/>
      <point x="125" y="705" type="curve" smooth="yes"/>
      <point x="125" y="731"/>
      <point x="105" y="751"/>
      <point x="79" y="751" type="curve" smooth="yes"/>
      <point x="53" y="751"/>
      <point x="33" y="731"/>
      <point x="33" y="705" type="curve" smooth="yes"/>
      <point x="33" y="679"/>
      <point x="54" y="659"/>
    </contour>
  </outline>
</glyph>
<glyph name="flatbreadstuffed" format="1">
  <advance width="1000"/>
  <outline>
    <contour>
      <point x="500" y="264" type="curve" smooth="yes"/>
      <point x="695" y="264"/>
      <point x="825" y="293"/>
      <point x="832" y="316" type="curve"/>
      <point x="788" y="455"/>
      <point x="709" y="460"/>
      <point x="606" y="371" type="curve"/>
      <point x="551" y="450"/>
      <point x="426" y="454"/>
      <point x="382" y="380" type="curve"/>
      <point x="307" y="449"/>
      <point x="209" y="433"/>
      <point x="168" y="316" type="curve"/>
      <point x="175" y="293"/>
      <point x="305" y="264"/>
    </contour>
    <contour>
      <point x="500" y="220" type="curve" smooth="yes"/>
      <point x="774" y="220"/>
      <point x="972" y="292"/>
      <point x="972" y="354" type="curve"/>
      <point x="994" y="402"/>
      <point x="980" y="575"/>
      <point x="809" y="519" type="curve"/>
      <point x="763" y="584"/>
      <point x="687" y="638"/>
      <point x="589" y="607" type="curve"/>
      <point x="533" y="642"/>
      <point x="416" y="650"/>
      <point x="373" y="575" type="curve"/>
      <point x="311" y="625"/>
      <point x="216" y="596"/>
      <point x="165" y="529" type="curve"/>
      <point x="76" y="540"/>
      <point x="-3" y="421"/>
      <point x="28" y="354" type="curve"/>
      <point x="28" y="291"/>
      <point x="226" y="220"/>
    </contour>
    <contour>
      <point x="500" y="272" type="curve" smooth="yes"/>
      <point x="258" y="272"/>
      <point x="98" y="319"/>
      <point x="88" y="354" type="curve"/>
      <point x="61" y="418"/>
      <point x="107" y="495"/>
      <point x="189" y="491" type="curve"/>
      <point x="226" y="555"/>
      <point x="298" y="582"/>
      <point x="382" y="528" type="curve"/>
      <point x="428" y="601"/>
      <point x="533" y="597"/>
      <point x="586" y="559" type="curve"/>
      <point x="684" y="584"/>
      <point x="734" y="541"/>
      <point x="783" y="475" type="curve"/>
      <point x="949" y="528"/>
      <point x="930" y="395"/>
      <point x="912" y="354" type="curve"/>
      <point x="902" y="319"/>
      <point x="742" y="272"/>
    </contour>
    <contour>
      <point x="28" y="353" type="line"/>
      <point x="28" y="-87"/>
      <point x="227" y="-222"/>
      <point x="500" y="-222" type="curve" smooth="yes"/>
      <point x="773" y="-222"/>
      <point x="972" y="-87"/>
      <point x="972" y="353" type="curve"/>
      <point x="916" y="340" type="line"/>
      <point x="916" y="-65"/>
      <point x="733" y="-172"/>
      <point x="500" y="-172" type="curve" smooth="yes"/>
      <point x="267" y="-172"/>
      <point x="84" y="-65"/>
      <point x="84" y="340" type="curve"/>
    </contour>
    <contour>
      <point x="701" y="120" type="curve" smooth="yes"/>
      <point x="709" y="120"/>
      <point x="717" y="127"/>
      <point x="717" y="135" type="curve" smooth="yes"/>
      <point x="717" y="145"/>
      <point x="709" y="152"/>
      <point x="701" y="152" type="curve" smooth="yes"/>
      <point x="693" y="152"/>
      <point x="685" y="145"/>
      <point x="685" y="135" type="curve" smooth="yes"/>
      <point x="685" y="127"/>
      <point x="693" y="120"/>
    </contour>
    <contour>
      <point x="773" y="134" type="curve" smooth="yes"/>
      <point x="781" y="134"/>
      <point x="789" y="141"/>
      <point x="789" y="150" type="curve" smooth="yes"/>
      <point x="789" y="159"/>
      <point x="781" y="167"/>
      <point x="773" y="167" type="curve" smooth="yes"/>
      <point x="765" y="167"/>
      <point x="757" y="159"/>
      <point x="757" y="150" type="curve" smooth="yes"/>
      <point x="757" y="141"/>
      <point x="765" y="134"/>
    </contour>
    <contour>
      <point x="744" y="62" type="curve" smooth="yes"/>
      <point x="753" y="62"/>
      <point x="760" y="69"/>
      <point x="760" y="78" type="curve" smooth="yes"/>
      <point x="760" y="87"/>
      <point x="753" y="95"/>
      <point x="744" y="95" type="curve" smooth="yes"/>
      <point x="736" y="95"/>
      <point x="729" y="87"/>
      <point x="729" y="78" type="curve" smooth="yes"/>
      <point x="729" y="69"/>
      <point x="736" y="62"/>
    </contour>
    <contour>
      <point x="301" y="51" type="curve" smooth="yes"/>
      <point x="309" y="51"/>
      <point x="317" y="58"/>
      <point x="317" y="67" type="curve" smooth="yes"/>
      <point x="317" y="77"/>
      <point x="309" y="85"/>
      <point x="301" y="85" type="curve" smooth="yes"/>
      <point x="293" y="85"/>
      <point x="285" y="77"/>
      <point x="285" y="67" type="curve" smooth="yes"/>
      <point x="285" y="58"/>
      <point x="293" y="51"/>
    </contour>
    <contour>
      <point x="229" y="65" type="curve" smooth="yes"/>
      <point x="237" y="65"/>
      <point x="245" y="73"/>
      <point x="245" y="81" type="curve" smooth="yes"/>
      <point x="245" y="92"/>
      <point x="237" y="99"/>
      <point x="229" y="99" type="curve" smooth="yes"/>
      <point x="221" y="99"/>
      <point x="213" y="92"/>
      <point x="213" y="81" type="curve" smooth="yes"/>
      <point x="213" y="73"/>
      <point x="221" y="65"/>
    </contour>
    <contour>
      <point x="252" y="2" type="curve" smooth="yes"/>
      <point x="260" y="2"/>
      <point x="267" y="9"/>
      <point x="267" y="17" type="curve" smooth="yes"/>
      <point x="267" y="28"/>
      <point x="260" y="35"/>
      <point x="252" y="35" type="curve" smooth="yes"/>
      <point x="243" y="35"/>
      <point x="236" y="28"/>
      <point x="236" y="17" type="curve" smooth="yes"/>
      <point x="236" y="9"/>
      <point x="243" y="2"/>
    </contour>
  </outline>
</glyph>
<glyph name="glasstumbler" format="1">
  <advance width="1000"/>
  <outline>
    <contour>
      <point x="500" y="-224" type="curve" smooth="yes"/>
      <point x="774" y="-224"/>
      <point x="874" y="-150"/>
      <point x="882" y="-50" type="curve" smooth="yes"/>
      <point x="932" y="550" type="line"/>
      <point x="932" y="650"/>
      <point x="774" y="724"/>
      <point x="500" y="724" type="curve" smooth="yes"/>
      <point x="226" y="724"/>
      <point x="60" y="650"/>
      <point x="68" y="550" type="curve" smooth="yes"/>
      <point x="118" y="-50" type="line"/>
      <point x="118" y="-150"/>
      <point x="226" y="-224"/>
    </contour>
    <contour>
      <point x="816" y="479" type="curve"/>
      <point x="756" y="519"/>
      <point x="647" y="544"/>
      <point x="500" y="544" type="curve" smooth="yes"/>
      <point x="353" y="544"/>
      <point x="244" y="519"/>
      <point x="184" y="479" type="curve"/>
      <point x="149" y="502"/>
      <point x="128" y="523"/>
      <point x="128" y="550" type="curve" smooth="yes"/>
      <point x="128" y="621"/>
      <point x="258" y="672"/>
      <point x="500" y="672" type="curve" smooth="yes"/>
      <point x="742" y="672"/>
      <point x="872" y="621"/>
      <point x="872" y="550" type="curve" smooth="yes"/>
      <point x="872" y="523"/>
      <point x="851" y="502"/>
    </contour>
    <contour>
      <point x="500" y="376" type="curve" smooth="yes"/>
      <point x="338" y="376"/>
      <point x="217" y="402"/>
      <point x="145" y="443" type="curve"/>
      <point x="154" y="456"/>
      <point x="167" y="468"/>
      <point x="184" y="479" type="curve"/>
      <point x="243" y="448"/>
      <point x="350" y="428"/>
      <point x="500" y="428" type="curve" smooth="yes"/>
      <point x="651" y="428"/>
      <point x="757" y="448"/>
      <point x="816" y="479" type="curve"/>
      <point x="833" y="468"/>
      <point x="846" y="456"/>
      <point x="855" y="443" type="curve"/>
      <point x="783" y="402"/>
      <point x="662" y="376"/>
    </contour>
    <contour>
      <point x="500" y="-172" type="curve" smooth="yes"/>
      <point x="258" y="-172"/>
      <point x="178" y="-117"/>
      <point x="178" y="-40" type="curve"/>
      <point x="168" y="64" type="line"/>
      <point x="185" y="38"/>
      <point x="215" y="15"/>
      <point x="257" y="-4" type="curve"/>
      <point x="236" y="298" type="line"/>
      <point x="298" y="282" type="line"/>
      <point x="320" y="-25" type="line"/>
      <point x="369" y="-37"/>
      <point x="429" y="-44"/>
      <point x="500" y="-44" type="curve" smooth="yes"/>
      <point x="686" y="-44"/>
      <point x="792" y="4"/>
      <point x="832" y="64" type="curve"/>
      <point x="822" y="-40" type="line"/>
      <point x="822" y="-117"/>
      <point x="742" y="-172"/>
    </contour>
  </outline>
</glyph>
<glyph name="goalnet" format="1">
  <advance width="1000"/>
  <outline>
    <contour>
      <point x="88" y="-184" type="line"/>
      <point x="88" y="210" type="line"/>
      <point x="88" y="598"/>
      <point x="118" y="632"/>
      <point x="500" y="632" type="curve" smooth="yes"/>
      <point x="882" y="632"/>
      <point x="912" y="598"/>
      <point x="912" y="210" type="curve"/>
      <point x="912" y="-184" type="line"/>
      <point x="972" y="-184" type="line"/>
      <point x="972" y="210" type="line"/>
      <point x="972" y="624"/>
      <point x="914" y="684"/>
      <point x="500" y="684" type="curve" smooth="yes"/>
      <point x="86" y="684"/>
      <point x="28" y="624"/>
      <point x="28" y="210" type="curve"/>
      <point x="28" y="-184" type="line"/>
    </contour>
    <contour>
      <point x="58" y="-184" type="line"/>
      <point x="942" y="-184" type="line"/>
      <point x="942" y="-134" type="line"/>
      <point x="58" y="-134" type="line"/>
    </contour>
    <contour>
      <point x="208" y="-44" type="line"/>
      <point x="792" y="-44" type="line"/>
      <point x="792" y="6" type="line"/>
      <point x="208" y="6" type="line"/>
    </contour>
    <contour>
      <point x="268" y="-24" type="line"/>
      <point x="268" y="290" type="line"/>
      <point x="268" y="457"/>
      <point x="285" y="472"/>
      <point x="500" y="472" type="curve" smooth="yes"/>
      <point x="715" y="472"/>
      <point x="732" y="457"/>
      <point x="732" y="290" type="curve"/>
      <point x="732" y="-24" type="line"/>
      <point x="792" y="-24" type="line"/>
      <point x="792" y="290" type="line"/>
      <point x="792" y="494"/>
      <point x="756" y="524"/>
      <point x="500" y="524" type="curve" smooth="yes"/>
      <point x="244" y="524"/>
      <point x="208" y="494"/>
      <point x="208" y="290" type="curve"/>
      <point x="208" y="-24" type="line"/>
    </contour>
    <contour>
      <point x="752" y="-44" type="line"/>
      <point x="932" y="-184" type="line"/>
      <point x="942" y="-124" type="line"/>
      <point x="762" y="16" type="line"/>
    </contour>
    <contour>
      <point x="248" y="-44" type="line"/>
      <point x="238" y="16" type="line"/>
      <point x="58" y="-124" type="line"/>
      <point x="68" y="-184" type="line"/>
    </contour>
    <contour>
      <point x="702" y="476" type="line"/>
      <point x="722" y="416" type="line"/>
      <point x="882" y="556" type="line"/>
      <point x="862" y="616" type="line"/>
    </contour>
    <contour>
      <point x="298" y="476" type="line"/>
      <point x="138" y="616" type="line"/>
      <point x="118" y="556" type="line"/>
      <point x="278" y="416" type="line"/>
    </contour>
  </outline>
</glyph>
<glyph name="gorilla.copy_1" format="1">
  <advance width="1000"/>
  <outline>
    <contour>
      <point x="417" y="187"/>
      <point x="468" y="324"/>
      <point x="468" y="493" type="curve" smooth="yes"/>
      <point x="468" y="616"/>
      <point x="402" y="718"/>
      <point x="320" y="718" type="curve" smooth="yes"/>
      <point x="248" y="718"/>
      <point x="163" y="603"/>
      <point x="163" y="519" type="curve"/>
      <point x="-27" y="319"/>
      <point x="125" y="187"/>
      <point x="353" y="187" type="curve" smooth="yes"/>
    </contour>
    <contour>
      <point x="334" y="-224" type="line"/>
      <point x="377" y="-233"/>
      <point x="413" y="-237"/>
      <point x="441" y="-237" type="curve" smooth="yes"/>
      <point x="490" y="-237"/>
      <point x="515" y="-224"/>
      <point x="515" y="-196" type="curve" smooth="yes"/>
      <point x="515" y="-180"/>
      <point x="506" y="-157"/>
      <point x="486" y="-130" type="curve"/>
      <point x="550" y="-65"/>
      <point x="581" y="-29"/>
      <point x="581" y="21" type="curve" smooth="yes"/>
      <point x="581" y="41"/>
      <point x="576" y="63"/>
      <point x="566" y="90" type="curve"/>
      <point x="611" y="390" type="line"/>
      <point x="351" y="64" type="line"/>
    </contour>
    <contour>
      <point x="550" y="-173"/>
      <point x="535" y="-185"/>
      <point x="535" y="-194" type="curve" smooth="yes"/>
      <point x="535" y="-206"/>
      <point x="567" y="-210"/>
      <point x="605" y="-210" type="curve" smooth="yes"/>
      <point x="651" y="-210"/>
      <point x="707" y="-201"/>
      <point x="718" y="-193" type="curve" smooth="yes"/>
      <point x="735" y="-182"/>
      <point x="729" y="-157"/>
      <point x="739" y="-121" type="curve" smooth="yes"/>
      <point x="758" y="-52"/>
      <point x="831" y="84"/>
      <point x="831" y="151" type="curve"/>
      <point x="600" y="139" type="line"/>
      <point x="625" y="16"/>
      <point x="603" y="-69"/>
      <point x="588" y="-157" type="curve"/>
    </contour>
    <contour>
      <point x="943" y="-183"/>
      <point x="963" y="-101"/>
      <point x="963" y="-60" type="curve" smooth="yes"/>
      <point x="963" y="-39"/>
      <point x="950" y="-5"/>
      <point x="927" y="11" type="curve"/>
      <point x="946" y="74"/>
      <point x="954" y="106"/>
      <point x="954" y="150" type="curve" smooth="yes"/>
      <point x="954" y="223"/>
      <point x="909" y="257"/>
      <point x="831" y="272" type="curve" smooth="yes"/>
      <point x="608" y="316"/>
      <point x="561" y="532"/>
      <point x="531" y="532" type="curve" smooth="yes"/>
      <point x="527" y="532"/>
      <point x="524" y="524"/>
      <point x="524" y="505" type="curve" smooth="yes"/>
      <point x="524" y="238"/>
      <point x="602" y="25"/>
      <point x="698" y="25" type="curve" smooth="yes"/>
      <point x="713" y="25"/>
      <point x="727" y="24"/>
      <point x="742" y="26" type="curve"/>
      <point x="780" y="-48"/>
      <point x="804" y="-99"/>
      <point x="808" y="-157" type="curve"/>
      <point x="764" y="-156"/>
      <point x="755" y="-177"/>
      <point x="755" y="-184" type="curve" smooth="yes"/>
      <point x="755" y="-204"/>
      <point x="778" y="-210"/>
      <point x="805" y="-210" type="curve" smooth="yes"/>
      <point x="855" y="-210"/>
      <point x="915" y="-202"/>
      <point x="928" y="-193" type="curve" smooth="yes"/>
    </contour>
    <contour>
      <point x="249" y="405" type="curve" smooth="yes"/>
      <point x="216" y="405"/>
      <point x="188" y="451"/>
      <point x="188" y="507" type="curve" smooth="yes"/>
      <point x="188" y="564"/>
      <point x="234" y="538"/>
      <point x="289" y="538" type="curve" smooth="yes"/>
      <point x="336" y="538"/>
      <point x="374" y="555"/>
      <point x="374" y="512" type="curve" smooth="yes"/>
      <point x="374" y="453"/>
      <point x="318" y="405"/>
    </contour>
    <contour>
      <point x="246" y="447" type="curve" smooth="yes"/>
      <point x="249" y="447"/>
      <point x="252" y="450"/>
      <point x="252" y="458" type="curve" smooth="yes"/>
      <point x="252" y="468"/>
      <point x="249" y="470"/>
      <point x="246" y="470" type="curve" smooth="yes"/>
      <point x="243" y="470"/>
      <point x="240" y="468"/>
      <point x="240" y="458" type="curve" smooth="yes"/>
      <point x="240" y="450"/>
      <point x="243" y="447"/>
    </contour>
    <contour>
      <point x="305" y="476"/>
      <point x="353" y="482"/>
      <point x="353" y="496" type="curve" smooth="yes"/>
      <point x="353" y="504"/>
      <point x="343" y="512"/>
      <point x="331" y="512" type="curve" smooth="yes"/>
      <point x="318" y="512"/>
      <point x="291" y="506"/>
      <point x="277" y="506" type="curve" smooth="yes"/>
      <point x="269" y="506"/>
      <point x="251" y="517"/>
      <point x="238" y="517" type="curve" smooth="yes"/>
      <point x="219" y="517"/>
      <point x="216" y="512"/>
      <point x="216" y="506" type="curve" smooth="yes"/>
      <point x="216" y="488"/>
      <point x="241" y="476"/>
      <point x="261" y="476" type="curve" smooth="yes"/>
    </contour>
    <contour>
      <point x="266" y="443" type="curve" smooth="yes"/>
      <point x="269" y="443"/>
      <point x="272" y="446"/>
      <point x="272" y="454" type="curve" smooth="yes"/>
      <point x="272" y="464"/>
      <point x="269" y="466"/>
      <point x="266" y="466" type="curve" smooth="yes"/>
      <point x="263" y="466"/>
      <point x="260" y="464"/>
      <point x="260" y="454" type="curve" smooth="yes"/>
      <point x="260" y="446"/>
      <point x="263" y="443"/>
    </contour>
    <contour>
      <point x="253" y="373" type="curve" smooth="yes"/>
      <point x="238" y="373"/>
      <point x="226" y="377"/>
      <point x="226" y="385" type="curve" smooth="yes"/>
      <point x="226" y="391"/>
      <point x="231" y="392"/>
      <point x="253" y="392" type="curve" smooth="yes"/>
      <point x="275" y="392"/>
      <point x="280" y="391"/>
      <point x="280" y="385" type="curve" smooth="yes"/>
      <point x="280" y="377"/>
      <point x="268" y="373"/>
    </contour>
  </outline>
</glyph>
<glyph name="gorilla.copy_2" format="1">
  <advance width="1000"/>
  <outline>
    <contour>
      <point x="334" y="-216" type="curve"/>
      <point x="521" y="-216" type="line"/>
      <point x="521" y="-191"/>
      <point x="510" y="-160"/>
      <point x="473" y="-155" type="curve"/>
      <point x="547" y="-80"/>
      <point x="581" y="-38"/>
      <point x="581" y="21" type="curve" smooth="yes"/>
      <point x="581" y="41"/>
      <point x="576" y="63"/>
      <point x="566" y="90" type="curve"/>
      <point x="611" y="390" type="line"/>
      <point x="351" y="64" type="line"/>
      <point x="333" y="-29"/>
      <point x="327" y="-123"/>
    </contour>
    <contour>
      <point x="248" y="441"/>
      <point x="252" y="443"/>
      <point x="252" y="450" type="curve" smooth="yes"/>
      <point x="252" y="462"/>
      <point x="248" y="473"/>
      <point x="238" y="473" type="curve" smooth="yes"/>
      <point x="232" y="473"/>
      <point x="228" y="470"/>
      <point x="228" y="460" type="curve" smooth="yes"/>
      <point x="228" y="451"/>
      <point x="236" y="441"/>
      <point x="244" y="441" type="curve" smooth="yes"/>
    </contour>
    <contour>
      <point x="282" y="438"/>
      <point x="290" y="449"/>
      <point x="290" y="460" type="curve" smooth="yes"/>
      <point x="290" y="466"/>
      <point x="287" y="470"/>
      <point x="280" y="470" type="curve" smooth="yes"/>
      <point x="272" y="470"/>
      <point x="264" y="461"/>
      <point x="264" y="448" type="curve" smooth="yes"/>
      <point x="264" y="440"/>
      <point x="268" y="438"/>
      <point x="271" y="438" type="curve" smooth="yes"/>
    </contour>
    <contour>
      <point x="855" y="-210"/>
      <point x="915" y="-202"/>
      <point x="928" y="-193" type="curve" smooth="yes"/>
      <point x="943" y="-183"/>
      <point x="963" y="-101"/>
      <point x="963" y="-60" type="curve" smooth="yes"/>
      <point x="963" y="-39"/>
      <point x="950" y="-5"/>
      <point x="927" y="11" type="curve"/>
      <point x="946" y="74"/>
      <point x="954" y="106"/>
      <point x="954" y="150" type="curve" smooth="yes"/>
      <point x="954" y="223"/>
      <point x="909" y="257"/>
      <point x="831" y="272" type="curve" smooth="yes"/>
      <point x="608" y="316"/>
      <point x="561" y="532"/>
      <point x="531" y="532" type="curve" smooth="yes"/>
      <point x="527" y="532"/>
      <point x="524" y="524"/>
      <point x="524" y="505" type="curve" smooth="yes"/>
      <point x="524" y="330"/>
      <point x="557" y="179"/>
      <point x="607" y="95" type="curve"/>
      <point x="610" y="71"/>
      <point x="611" y="49"/>
      <point x="611" y="28" type="curve" smooth="yes"/>
      <point x="611" y="-41"/>
      <point x="598" y="-98"/>
      <point x="588" y="-157" type="curve"/>
      <point x="550" y="-173"/>
      <point x="535" y="-185"/>
      <point x="535" y="-194" type="curve" smooth="yes"/>
      <point x="535" y="-206"/>
      <point x="567" y="-210"/>
      <point x="605" y="-210" type="curve" smooth="yes"/>
      <point x="651" y="-210"/>
      <point x="707" y="-201"/>
      <point x="718" y="-193" type="curve" smooth="yes"/>
      <point x="735" y="-182"/>
      <point x="729" y="-157"/>
      <point x="739" y="-121" type="curve" smooth="yes"/>
      <point x="745" y="-98"/>
      <point x="758" y="-67"/>
      <point x="772" y="-34" type="curve"/>
      <point x="792" y="-78"/>
      <point x="805" y="-116"/>
      <point x="808" y="-157" type="curve"/>
      <point x="807" y="-157"/>
      <point x="806" y="-157"/>
      <point x="805" y="-157" type="curve" smooth="yes"/>
      <point x="764" y="-157"/>
      <point x="755" y="-177"/>
      <point x="755" y="-184" type="curve" smooth="yes"/>
      <point x="755" y="-204"/>
      <point x="778" y="-210"/>
      <point x="805" y="-210" type="curve" smooth="yes"/>
    </contour>
    <contour>
      <point x="193" y="564"/>
      <point x="203" y="568"/>
      <point x="219" y="568" type="curve" smooth="yes"/>
      <point x="238" y="568"/>
      <point x="263" y="562"/>
      <point x="289" y="562" type="curve" smooth="yes"/>
      <point x="309" y="562"/>
      <point x="328" y="566"/>
      <point x="341" y="566" type="curve" smooth="yes"/>
      <point x="355" y="566"/>
      <point x="364" y="562"/>
      <point x="364" y="550" type="curve" smooth="yes"/>
      <point x="364" y="538"/>
      <point x="358" y="535"/>
      <point x="350" y="535" type="curve" smooth="yes"/>
      <point x="344" y="535"/>
      <point x="334" y="539"/>
      <point x="327" y="539" type="curve" smooth="yes"/>
      <point x="315" y="539"/>
      <point x="289" y="533"/>
      <point x="275" y="533" type="curve" smooth="yes"/>
      <point x="267" y="533"/>
      <point x="250" y="541"/>
      <point x="238" y="541" type="curve" smooth="yes"/>
      <point x="228" y="541"/>
      <point x="218" y="538"/>
      <point x="213" y="538" type="curve" smooth="yes"/>
      <point x="201" y="538"/>
      <point x="193" y="541"/>
      <point x="193" y="550" type="curve" smooth="yes"/>
    </contour>
    <contour>
      <point x="298" y="481"/>
      <point x="304" y="474"/>
      <point x="304" y="465" type="curve" smooth="yes"/>
      <point x="304" y="444"/>
      <point x="287" y="409"/>
      <point x="249" y="409" type="curve" smooth="yes"/>
      <point x="231" y="409"/>
      <point x="214" y="426"/>
      <point x="214" y="458" type="curve" smooth="yes"/>
      <point x="214" y="473"/>
      <point x="222" y="485"/>
      <point x="236" y="485" type="curve" smooth="yes"/>
      <point x="247" y="485"/>
      <point x="255" y="479"/>
      <point x="264" y="479" type="curve" smooth="yes"/>
      <point x="269" y="479"/>
      <point x="275" y="481"/>
      <point x="285" y="481" type="curve" smooth="yes"/>
    </contour>
    <contour>
      <point x="235" y="364"/>
      <point x="222" y="369"/>
      <point x="222" y="380" type="curve" smooth="yes"/>
      <point x="222" y="389"/>
      <point x="227" y="390"/>
      <point x="253" y="390" type="curve" smooth="yes"/>
      <point x="278" y="390"/>
      <point x="284" y="389"/>
      <point x="284" y="380" type="curve" smooth="yes"/>
      <point x="284" y="369"/>
      <point x="270" y="364"/>
      <point x="253" y="364" type="curve" smooth="yes"/>
    </contour>
    <contour>
      <point x="289" y="-174"/>
      <point x="276" y="-161"/>
      <point x="234" y="-153" type="curve"/>
      <point x="265" y="-86"/>
      <point x="289" y="-40"/>
      <point x="289" y="7" type="curve" smooth="yes"/>
      <point x="289" y="42"/>
      <point x="281" y="76"/>
      <point x="255" y="99" type="curve"/>
      <point x="265" y="132"/>
      <point x="272" y="163"/>
      <point x="278" y="192" type="curve"/>
      <point x="302" y="189"/>
      <point x="327" y="187"/>
      <point x="353" y="187" type="curve" smooth="yes"/>
      <point x="417" y="187"/>
      <point x="468" y="324"/>
      <point x="468" y="493" type="curve" smooth="yes"/>
      <point x="468" y="616"/>
      <point x="402" y="718"/>
      <point x="320" y="718" type="curve" smooth="yes"/>
      <point x="248" y="718"/>
      <point x="163" y="603"/>
      <point x="163" y="519" type="curve"/>
      <point x="154" y="510"/>
      <point x="146" y="500"/>
      <point x="139" y="491" type="curve"/>
      <point x="81" y="482"/>
      <point x="29" y="434"/>
      <point x="29" y="368" type="curve" smooth="yes"/>
      <point x="29" y="164"/>
      <point x="49" y="-33"/>
      <point x="118" y="-216" type="curve"/>
      <point x="289" y="-216" type="line"/>
    </contour>
  </outline>
</glyph>
<glyph name="grin" format="1">
  <advance width="1000"/>
  <outline>
    <contour>
      <point x="500" y="32" type="curve" smooth="yes"/>
      <point x="340" y="32"/>
      <point x="278" y="78"/>
      <point x="270" y="156" type="curve"/>
      <point x="730" y="156" type="line"/>
      <point x="722" y="78"/>
      <point x="660" y="32"/>
    </contour>
    <contour>
      <point x="500" y="-67" type="curve" smooth="yes"/>
      <point x="658" y="-67"/>
      <point x="762" y="12"/>
      <point x="780" y="196" type="curve"/>
      <point x="220" y="196" type="line"/>
      <point x="238" y="12"/>
      <point x="342" y="-67"/>
    </contour>
    <component base="face"/>
  </outline>
</glyph>
<glyph name="handball" format="1">
  <advance width="1000"/>
  <outline>
    <contour>
      <point x="323" y="201"/>
      <point x="304" y="158"/>
      <point x="317" y="118" type="curve"/>
      <point x="306" y="59"/>
      <point x="273" y="19"/>
      <point x="269" y="-36" type="curve"/>
      <point x="236" y="-94"/>
      <point x="214" y="-159"/>
      <point x="188" y="-220" type="curve"/>
      <point x="245" y="-250" type="line"/>
      <point x="293" y="-184"/>
      <point x="311" y="-150"/>
      <point x="347" y="-100" type="curve"/>
      <point x="360" y="-85"/>
      <point x="370" y="-68"/>
      <point x="375" y="-49" type="curve"/>
      <point x="405" y="0"/>
      <point x="431" y="38"/>
      <point x="443" y="114" type="curve"/>
      <point x="427" y="106" type="line"/>
      <point x="466" y="47"/>
      <point x="519" y="32"/>
      <point x="561" y="5" type="curve"/>
      <point x="531" y="-46"/>
      <point x="511" y="-93"/>
      <point x="495" y="-161" type="curve"/>
      <point x="558" y="-187" type="line"/>
      <point x="595" y="-111"/>
      <point x="633" y="-48"/>
      <point x="655" y="24" type="curve"/>
      <point x="659" y="43"/>
      <point x="657" y="59"/>
      <point x="645" y="68" type="curve"/>
      <point x="604" y="112"/>
      <point x="556" y="153"/>
      <point x="503" y="193" type="curve"/>
      <point x="515" y="236"/>
      <point x="554" y="267"/>
      <point x="563" y="300" type="curve"/>
      <point x="570" y="300" type="line"/>
      <point x="579" y="274"/>
      <point x="586" y="232"/>
      <point x="602" y="214" type="curve"/>
      <point x="744" y="183" type="line"/>
      <point x="764" y="246" type="line"/>
      <point x="653" y="282" type="line"/>
      <point x="652" y="332"/>
      <point x="637" y="401"/>
      <point x="606" y="451" type="curve"/>
      <point x="459" y="500" type="line"/>
      <point x="412" y="506"/>
      <point x="368" y="503"/>
      <point x="313" y="499" type="curve"/>
      <point x="255" y="611" type="line"/>
      <point x="195" y="587" type="line"/>
      <point x="256" y="434" type="line"/>
      <point x="260" y="420"/>
      <point x="269" y="410"/>
      <point x="288" y="410" type="curve" smooth="yes"/>
      <point x="326" y="408"/>
      <point x="354" y="400"/>
      <point x="391" y="398" type="curve"/>
      <point x="392" y="393" type="line"/>
      <point x="371" y="331"/>
      <point x="369" y="292"/>
      <point x="347" y="230" type="curve"/>
    </contour>
    <contour>
      <point x="600" y="498" type="curve" smooth="yes"/>
      <point x="642" y="498"/>
      <point x="677" y="532"/>
      <point x="677" y="575" type="curve" smooth="yes"/>
      <point x="677" y="618"/>
      <point x="643" y="652"/>
      <point x="600" y="652" type="curve" smooth="yes"/>
      <point x="557" y="652"/>
      <point x="523" y="618"/>
      <point x="523" y="575" type="curve" smooth="yes"/>
      <point x="523" y="532"/>
      <point x="559" y="498"/>
    </contour>
    <contour>
      <point x="380" y="608" type="curve" smooth="yes"/>
      <point x="340" y="608"/>
      <point x="316" y="638"/>
      <point x="316" y="674" type="curve" smooth="yes"/>
      <point x="316" y="710"/>
      <point x="340" y="740"/>
      <point x="380" y="740" type="curve" smooth="yes"/>
      <point x="420" y="740"/>
      <point x="444" y="710"/>
      <point x="444" y="674" type="curve" smooth="yes"/>
      <point x="444" y="638"/>
      <point x="420" y="608"/>
    </contour>
    <contour>
      <point x="380" y="588" type="curve" smooth="yes"/>
      <point x="430" y="588"/>
      <point x="468" y="626"/>
      <point x="468" y="674" type="curve" smooth="yes"/>
      <point x="468" y="722"/>
      <point x="430" y="760"/>
      <point x="380" y="760" type="curve" smooth="yes"/>
      <point x="330" y="760"/>
      <point x="292" y="722"/>
      <point x="292" y="674" type="curve" smooth="yes"/>
      <point x="292" y="626"/>
      <point x="330" y="588"/>
    </contour>
    <contour>
      <point x="824" y="151" type="curve"/>
      <point x="860" y="151"/>
      <point x="878" y="206"/>
      <point x="856" y="228" type="curve" smooth="yes"/>
      <point x="836" y="248"/>
      <point x="818" y="237"/>
      <point x="792" y="237" type="curve"/>
      <point x="782" y="218"/>
      <point x="777" y="197"/>
      <point x="774" y="174" type="curve"/>
      <point x="784" y="168"/>
      <point x="810" y="155"/>
    </contour>
    <contour>
      <point x="158" y="671" type="curve"/>
      <point x="164" y="654"/>
      <point x="179" y="631"/>
      <point x="187" y="621" type="curve"/>
      <point x="206" y="626"/>
      <point x="226" y="632"/>
      <point x="247" y="646" type="curve"/>
      <point x="243" y="672"/>
      <point x="254" y="691"/>
      <point x="230" y="710" type="curve" smooth="yes"/>
      <point x="204" y="730"/>
      <point x="154" y="706"/>
    </contour>
  </outline>
</glyph>
<glyph name="heartblackheavy" format="1">
  <advance width="1000"/>
  <outline>
    <contour>
      <point x="502" y="-199" type="line"/>
      <point x="632" y="55"/>
      <point x="1006" y="21"/>
      <point x="1006" y="411" type="curve" smooth="yes"/>
      <point x="1006" y="585"/>
      <point x="894" y="685"/>
      <point x="738" y="685" type="curve" smooth="yes"/>
      <point x="616" y="685"/>
      <point x="538" y="637"/>
      <point x="502" y="501" type="curve"/>
      <point x="498" y="501" type="line"/>
      <point x="462" y="637"/>
      <point x="384" y="685"/>
      <point x="262" y="685" type="curve" smooth="yes"/>
      <point x="106" y="685"/>
      <point x="-6" y="585"/>
      <point x="-6" y="411" type="curve" smooth="yes"/>
      <point x="-6" y="21"/>
      <point x="368" y="55"/>
      <point x="498" y="-199" type="curve"/>
    </contour>
  </outline>
</glyph>
<glyph name="juggling" format="1">
  <advance width="1000"/>
  <outline>
    <contour>
      <point x="750" y="104" type="line"/>
      <point x="461" y="132" type="line" smooth="yes"/>
      <point x="428" y="135"/>
      <point x="411" y="139"/>
      <point x="411" y="154" type="curve" smooth="yes"/>
      <point x="411" y="175" name="inserted"/>
      <point x="428" y="184"/>
      <point x="465" y="184" type="curve" smooth="yes"/>
      <point x="514" y="184"/>
      <point x="563" y="174"/>
      <point x="610" y="174" type="curve"/>
      <point x="634" y="187" name="inserted"/>
      <point x="652" y="192"/>
      <point x="683" y="192" type="curve"/>
      <point x="709" y="183" name="inserted"/>
      <point x="732" y="177"/>
      <point x="757" y="174" type="curve"/>
      <point x="765" y="214" type="line"/>
      <point x="728" y="221" name="inserted"/>
      <point x="698" y="228"/>
      <point x="672" y="239" type="curve"/>
      <point x="663" y="234" name="inserted"/>
      <point x="654" y="228"/>
      <point x="634" y="228" type="curve" smooth="yes"/>
      <point x="607" y="228" name="inserted"/>
      <point x="589" y="237"/>
      <point x="589" y="256" type="curve" smooth="yes"/>
      <point x="589" y="276" name="inserted"/>
      <point x="607" y="286"/>
      <point x="644" y="286" type="curve" smooth="yes"/>
      <point x="696" y="286" name="inserted"/>
      <point x="763" y="310"/>
      <point x="798" y="310" type="curve" smooth="yes"/>
      <point x="825" y="310" name="inserted"/>
      <point x="856" y="302"/>
      <point x="879" y="282" type="curve"/>
      <point x="940" y="292" type="line"/>
      <point x="952" y="267"/>
      <point x="960" y="223"/>
      <point x="960" y="186" type="curve"/>
    </contour>
    <contour>
      <point x="750" y="361"/>
      <point x="684" y="335"/>
      <point x="645" y="335" type="curve" smooth="yes"/>
      <point x="573" y="335" name="inserted"/>
      <point x="537" y="308"/>
      <point x="537" y="266" type="curve" smooth="yes"/>
      <point x="537" y="223" name="inserted"/>
      <point x="566" y="208"/>
      <point x="624" y="208" type="curve"/>
      <point x="601" y="219" type="line"/>
      <point x="536" y="229"/>
      <point x="474" y="233"/>
      <point x="463" y="233" type="curve" smooth="yes"/>
      <point x="384" y="233"/>
      <point x="360" y="204"/>
      <point x="360" y="159" type="curve" smooth="yes"/>
      <point x="360" y="111"/>
      <point x="395" y="96"/>
      <point x="452" y="89" type="curve"/>
      <point x="762" y="50" type="line"/>
      <point x="1014" y="152" type="line"/>
      <point x="1012" y="232" name="inserted"/>
      <point x="1001" y="291"/>
      <point x="978" y="344" type="curve"/>
      <point x="883" y="332" type="line"/>
      <point x="863" y="349" name="inserted"/>
      <point x="828" y="361"/>
      <point x="802" y="361" type="curve" smooth="yes"/>
    </contour>
    <contour>
      <point x="520" y="482" type="curve" smooth="yes"/>
      <point x="602" y="482"/>
      <point x="662" y="539"/>
      <point x="662" y="616" type="curve" smooth="yes"/>
      <point x="662" y="694"/>
      <point x="602" y="750"/>
      <point x="520" y="750" type="curve" smooth="yes"/>
      <point x="438" y="750"/>
      <point x="378" y="694"/>
      <point x="378" y="616" type="curve" smooth="yes"/>
      <point x="378" y="539"/>
      <point x="438" y="482"/>
    </contour>
    <contour>
      <point x="555" y="542" type="curve"/>
      <point x="520" y="616" type="line"/>
      <point x="446" y="581" type="line"/>
      <point x="425" y="626"/>
      <point x="442" y="670"/>
      <point x="485" y="690" type="curve"/>
      <point x="520" y="616" type="line"/>
      <point x="594" y="651" type="line"/>
      <point x="615" y="607"/>
      <point x="598" y="562"/>
    </contour>
    <contour>
      <point x="200" y="180" type="curve" smooth="yes"/>
      <point x="282" y="180"/>
      <point x="342" y="237"/>
      <point x="342" y="314" type="curve" smooth="yes"/>
      <point x="342" y="392"/>
      <point x="282" y="448"/>
      <point x="200" y="448" type="curve" smooth="yes"/>
      <point x="118" y="448"/>
      <point x="58" y="392"/>
      <point x="58" y="314" type="curve" smooth="yes"/>
      <point x="58" y="237"/>
      <point x="118" y="180"/>
    </contour>
    <contour>
      <point x="221" y="393" type="curve"/>
      <point x="200" y="314" type="line"/>
      <point x="279" y="293" type="line"/>
      <point x="267" y="245"/>
      <point x="225" y="222"/>
      <point x="179" y="235" type="curve"/>
      <point x="200" y="314" type="line"/>
      <point x="121" y="335" type="line"/>
      <point x="133" y="382"/>
      <point x="175" y="406"/>
    </contour>
    <contour>
      <point x="238" y="-250" type="line"/>
      <point x="548" y="-211" type="line"/>
      <point x="605" y="-204"/>
      <point x="640" y="-189"/>
      <point x="640" y="-141" type="curve" smooth="yes"/>
      <point x="640" y="-103"/>
      <point x="623" y="-77"/>
      <point x="572" y="-69" type="curve"/>
      <point x="568" y="5"/>
      <point x="510" y="58"/>
      <point x="430" y="58" type="curve" smooth="yes"/>
      <point x="399" y="58"/>
      <point x="370" y="50"/>
      <point x="348" y="35" type="curve"/>
      <point x="308" y="38"/>
      <point x="247" y="61"/>
      <point x="198" y="61" type="curve" smooth="yes"/>
      <point x="172" y="61"/>
      <point x="137" y="49" name="inserted"/>
      <point x="117" y="32" type="curve"/>
      <point x="22" y="44" type="line"/>
      <point x="-1" y="-9"/>
      <point x="-12" y="-68" name="inserted"/>
      <point x="-14" y="-148" type="curve"/>
    </contour>
    <contour>
      <point x="463" y="-46" type="curve" smooth="yes"/>
      <point x="463" y="-25"/>
      <point x="458" y="-8"/>
      <point x="447" y="5" type="curve"/>
      <point x="483" y="-2"/>
      <point x="508" y="-29"/>
      <point x="512" y="-67" type="curve"/>
      <point x="500" y="-67"/>
      <point x="488" y="-67"/>
      <point x="481" y="-68" type="curve" smooth="yes"/>
      <point x="458" y="-71" type="line"/>
      <point x="461" y="-64"/>
      <point x="463" y="-55"/>
    </contour>
    <contour>
      <point x="250" y="-196" type="line"/>
      <point x="40" y="-114" type="line"/>
      <point x="40" y="-77"/>
      <point x="48" y="-33"/>
      <point x="60" y="-8" type="curve"/>
      <point x="121" y="-18" type="line"/>
      <point x="144" y="2"/>
      <point x="175" y="10" name="inserted"/>
      <point x="202" y="10" type="curve" smooth="yes"/>
      <point x="237" y="10"/>
      <point x="304" y="-14" name="inserted"/>
      <point x="356" y="-14" type="curve" smooth="yes"/>
      <point x="393" y="-14"/>
      <point x="411" y="-24" name="inserted"/>
      <point x="411" y="-44" type="curve" smooth="yes"/>
      <point x="411" y="-63"/>
      <point x="393" y="-72" name="inserted"/>
      <point x="372" y="-72" type="curve" smooth="yes"/>
      <point x="352" y="-72"/>
      <point x="343" y="-67" name="inserted"/>
      <point x="328" y="-61" type="curve"/>
      <point x="302" y="-72"/>
      <point x="272" y="-79" name="inserted"/>
      <point x="235" y="-86" type="curve"/>
      <point x="243" y="-126" type="line"/>
      <point x="268" y="-123"/>
      <point x="291" y="-117" name="inserted"/>
      <point x="317" y="-108" type="curve"/>
      <point x="348" y="-108"/>
      <point x="366" y="-113" name="inserted"/>
      <point x="390" y="-126" type="curve"/>
      <point x="437" y="-126"/>
      <point x="486" y="-116"/>
      <point x="535" y="-116" type="curve" smooth="yes"/>
      <point x="572" y="-116"/>
      <point x="589" y="-125" name="inserted"/>
      <point x="589" y="-146" type="curve" smooth="yes"/>
      <point x="589" y="-161"/>
      <point x="572" y="-165"/>
      <point x="539" y="-168" type="curve" smooth="yes"/>
    </contour>
    <contour>
      <point x="531" y="436" type="line"/>
      <point x="585" y="450"/>
      <point x="627" y="469"/>
      <point x="665" y="497" type="curve"/>
      <point x="688" y="469" type="line"/>
      <point x="645" y="442"/>
      <point x="596" y="418"/>
      <point x="537" y="403" type="curve"/>
    </contour>
    <contour>
      <point x="151" y="493" type="curve"/>
      <point x="150" y="527" type="line"/>
      <point x="211" y="528"/>
      <point x="264" y="517"/>
      <point x="313" y="502" type="curve"/>
      <point x="297" y="468" type="line"/>
      <point x="253" y="486"/>
      <point x="207" y="493"/>
    </contour>
  </outline>
</glyph>
<glyph name="lizard" format="1">
  <advance width="1000"/>
  <outline>
    <contour>
      <point x="500" y="746" type="line"/>
      <point x="399" y="597" type="line"/>
      <point x="464" y="442" type="line"/>
      <point x="426" y="392" type="line"/>
      <point x="281" y="460" type="line"/>
      <point x="290" y="547" type="line"/>
      <point x="319" y="580" type="line"/>
      <point x="284" y="579" type="line"/>
      <point x="261" y="634" type="line"/>
      <point x="259" y="583" type="line"/>
      <point x="236" y="615" type="line"/>
      <point x="236" y="595" type="line"/>
      <point x="215" y="596" type="line"/>
      <point x="252" y="533" type="line"/>
      <point x="243" y="424" type="line"/>
      <point x="395" y="345" type="line"/>
      <point x="444" y="168" type="line"/>
      <point x="303" y="170" type="line"/>
      <point x="244" y="35" type="line"/>
      <point x="207" y="76" type="line"/>
      <point x="230" y="25" type="line"/>
      <point x="201" y="25" type="line"/>
      <point x="222" y="3" type="line"/>
      <point x="197" y="1" type="line"/>
      <point x="243" y="-45" type="line"/>
      <point x="212" y="-79" type="line"/>
      <point x="288" y="-40" type="line"/>
      <point x="315" y="68" type="line"/>
      <point x="440" y="66" type="line"/>
      <point x="584" y="-92" type="line"/>
      <point x="473" y="-182" type="line"/>
      <point x="594" y="-248" type="line"/>
      <point x="559" y="-162" type="line"/>
      <point x="652" y="-86" type="line"/>
      <point x="569" y="66" type="line"/>
      <point x="678" y="69" type="line"/>
      <point x="742" y="-3" type="line"/>
      <point x="838" y="-49" type="line"/>
      <point x="804" y="-6" type="line"/>
      <point x="842" y="10" type="line"/>
      <point x="810" y="25" type="line"/>
      <point x="850" y="52" type="line"/>
      <point x="802" y="55" type="line"/>
      <point x="838" y="91" type="line"/>
      <point x="774" y="73" type="line"/>
      <point x="716" y="163" type="line"/>
      <point x="565" y="168" type="line"/>
      <point x="586" y="325" type="line"/>
      <point x="715" y="377" type="line"/>
      <point x="805" y="447" type="line"/>
      <point x="865" y="549" type="line"/>
      <point x="828" y="537" type="line"/>
      <point x="825" y="566" type="line"/>
      <point x="799" y="539" type="line"/>
      <point x="793" y="593" type="line"/>
      <point x="779" y="542" type="line"/>
      <point x="745" y="542" type="line"/>
      <point x="759" y="515" type="line"/>
      <point x="708" y="429" type="line"/>
      <point x="611" y="407" type="line"/>
      <point x="561" y="451" type="line"/>
      <point x="600" y="611" type="line"/>
    </contour>
  </outline>
</glyph>
<glyph name="lock" format="1">
  <advance width="1000"/>
  <outline>
    <contour>
      <point x="160" y="-239" type="line"/>
      <point x="840" y="-239" type="line"/>
      <point x="907" y="-174" type="line"/>
      <point x="907" y="360" type="line"/>
      <point x="840" y="425" type="line"/>
      <point x="763" y="425" type="line"/>
      <point x="763" y="488" type="line" smooth="yes"/>
      <point x="763" y="663"/>
      <point x="668" y="765"/>
      <point x="500" y="765" type="curve" smooth="yes"/>
      <point x="333" y="765"/>
      <point x="237" y="663"/>
      <point x="237" y="488" type="curve"/>
      <point x="237" y="425" type="line"/>
      <point x="160" y="425" type="line"/>
      <point x="93" y="360" type="line"/>
      <point x="93" y="-174" type="line"/>
    </contour>
    <contour>
      <point x="408" y="-172" type="line"/>
      <point x="453" y="76" type="line"/>
      <point x="385" y="101"/>
      <point x="358" y="148"/>
      <point x="358" y="211" type="curve" smooth="yes"/>
      <point x="358" y="291"/>
      <point x="420" y="350"/>
      <point x="500" y="350" type="curve" smooth="yes"/>
      <point x="580" y="350"/>
      <point x="642" y="291"/>
      <point x="642" y="211" type="curve" smooth="yes"/>
      <point x="642" y="148"/>
      <point x="615" y="101"/>
      <point x="547" y="76" type="curve"/>
      <point x="592" y="-172" type="line"/>
      <point x="517" y="-205" type="line"/>
      <point x="483" y="-205" type="line"/>
    </contour>
    <contour>
      <point x="347" y="425" type="line"/>
      <point x="347" y="485" type="line" smooth="yes"/>
      <point x="347" y="594"/>
      <point x="397" y="658"/>
      <point x="500" y="658" type="curve" smooth="yes"/>
      <point x="603" y="658"/>
      <point x="653" y="594"/>
      <point x="653" y="485" type="curve" smooth="yes"/>
      <point x="653" y="425" type="line"/>
    </contour>
  </outline>
</glyph>
<glyph name="medalsports" format="1">
  <advance width="1000"/>
  <outline>
    <contour>
      <point x="500" y="404" type="curve"/>
      <point x="420" y="460"/>
      <point x="320" y="560"/>
      <point x="280" y="750" type="curve"/>
      <point x="80" y="750" type="line"/>
      <point x="150" y="480"/>
      <point x="340" y="350"/>
      <point x="500" y="350" type="curve" smooth="yes"/>
      <point x="660" y="350"/>
      <point x="850" y="480"/>
      <point x="920" y="750" type="curve"/>
      <point x="720" y="750" type="line"/>
      <point x="680" y="560"/>
      <point x="580" y="460"/>
    </contour>
    <contour>
      <point x="520" y="380" type="curve"/>
      <point x="620" y="442"/>
      <point x="730" y="540"/>
      <point x="770" y="710" type="curve"/>
      <point x="850" y="710" type="line"/>
      <point x="800" y="520"/>
      <point x="640" y="402"/>
    </contour>
    <contour>
      <point x="480" y="380" type="curve"/>
      <point x="360" y="402"/>
      <point x="200" y="520"/>
      <point x="150" y="710" type="curve"/>
      <point x="230" y="710" type="line"/>
      <point x="270" y="540"/>
      <point x="380" y="442"/>
    </contour>
    <contour>
      <point x="500" y="-222" type="curve" smooth="yes"/>
      <point x="657" y="-222"/>
      <point x="772" y="-108"/>
      <point x="772" y="50" type="curve" smooth="yes"/>
      <point x="772" y="208"/>
      <point x="657" y="322"/>
      <point x="500" y="322" type="curve" smooth="yes"/>
      <point x="343" y="322"/>
      <point x="228" y="208"/>
      <point x="228" y="50" type="curve" smooth="yes"/>
      <point x="228" y="-108"/>
      <point x="343" y="-222"/>
    </contour>
    <contour>
      <point x="500" y="-206" type="line"/>
      <point x="461" y="-129" type="line"/>
      <point x="403" y="-185" type="line"/>
      <point x="399" y="-100" type="line"/>
      <point x="320" y="-130" type="line"/>
      <point x="350" y="-54" type="line"/>
      <point x="267" y="-46" type="line"/>
      <point x="319" y="14" type="line"/>
      <point x="248" y="50" type="line"/>
      <point x="322" y="88" type="line"/>
      <point x="265" y="147" type="line"/>
      <point x="350" y="150" type="line"/>
      <point x="320" y="230" type="line"/>
      <point x="395" y="200" type="line"/>
      <point x="402" y="287" type="line"/>
      <point x="464" y="234" type="line"/>
      <point x="500" y="306" type="line"/>
      <point x="539" y="229" type="line"/>
      <point x="597" y="285" type="line"/>
      <point x="601" y="200" type="line"/>
      <point x="680" y="230" type="line"/>
      <point x="650" y="154" type="line"/>
      <point x="733" y="146" type="line"/>
      <point x="681" y="86" type="line"/>
      <point x="752" y="50" type="line"/>
      <point x="678" y="12" type="line"/>
      <point x="735" y="-47" type="line"/>
      <point x="650" y="-50" type="line"/>
      <point x="680" y="-130" type="line"/>
      <point x="605" y="-100" type="line"/>
      <point x="598" y="-187" type="line"/>
      <point x="537" y="-134" type="line"/>
    </contour>
  </outline>
</glyph>
<glyph name="medalthirdplace" format="1">
  <advance width="1000"/>
  <outline>
    <contour>
      <point x="499" y="-74" type="curve" smooth="yes"/>
      <point x="551" y="-74"/>
      <point x="594" y="-45"/>
      <point x="594" y="2" type="curve" smooth="yes"/>
      <point x="594" y="35"/>
      <point x="572" y="57"/>
      <point x="538" y="64" type="curve"/>
      <point x="569" y="76"/>
      <point x="584" y="95"/>
      <point x="584" y="126" type="curve" smooth="yes"/>
      <point x="584" y="168"/>
      <point x="544" y="194"/>
      <point x="498" y="194" type="curve" smooth="yes"/>
      <point x="460" y="194"/>
      <point x="431" y="177"/>
      <point x="410" y="151" type="curve"/>
      <point x="435" y="119" type="line"/>
      <point x="449" y="138"/>
      <point x="471" y="150"/>
      <point x="492" y="150" type="curve" smooth="yes"/>
      <point x="518" y="150"/>
      <point x="534" y="138"/>
      <point x="534" y="120" type="curve" smooth="yes"/>
      <point x="534" y="97"/>
      <point x="513" y="80"/>
      <point x="469" y="80" type="curve"/>
      <point x="469" y="44" type="line"/>
      <point x="520" y="44"/>
      <point x="544" y="30"/>
      <point x="544" y="4" type="curve" smooth="yes"/>
      <point x="544" y="-18"/>
      <point x="522" y="-30"/>
      <point x="496" y="-30" type="curve" smooth="yes"/>
      <point x="468" y="-30"/>
      <point x="443" y="-17"/>
      <point x="427" y="8" type="curve"/>
      <point x="399" y="-24" type="line"/>
      <point x="419" y="-53"/>
      <point x="455" y="-74"/>
    </contour>
    <component base="medalsports"/>
  </outline>
</glyph>
<glyph name="moonnew" format="1">
  <advance width="1000"/>
  <outline>
    <contour>
      <point x="500" y="-224" type="curve" smooth="yes"/>
      <point x="774" y="-224"/>
      <point x="972" y="-24"/>
      <point x="972" y="250" type="curve" smooth="yes"/>
      <point x="972" y="524"/>
      <point x="774" y="724"/>
      <point x="500" y="724" type="curve" smooth="yes"/>
      <point x="226" y="724"/>
      <point x="28" y="524"/>
      <point x="28" y="250" type="curve" smooth="yes"/>
      <point x="28" y="-24"/>
      <point x="226" y="-224"/>
    </contour>
  </outline>
</glyph>
<glyph name="panoffoodshallow" format="1">
  <advance width="1000"/>
  <outline>
    <contour>
      <point x="751" y="-184"/>
      <point x="932" y="-1"/>
      <point x="932" y="250" type="curve" smooth="yes"/>
      <point x="932" y="501"/>
      <point x="751" y="684"/>
      <point x="500" y="684" type="curve" smooth="yes"/>
      <point x="249" y="684"/>
      <point x="68" y="501"/>
      <point x="68" y="250" type="curve" smooth="yes"/>
      <point x="68" y="-1"/>
      <point x="249" y="-184"/>
      <point x="500" y="-184" type="curve" smooth="yes"/>
    </contour>
    <contour>
      <point x="282" y="-132"/>
      <point x="128" y="25"/>
      <point x="128" y="250" type="curve" smooth="yes"/>
      <point x="128" y="474"/>
      <point x="282" y="632"/>
      <point x="500" y="632" type="curve" smooth="yes"/>
      <point x="719" y="632"/>
      <point x="872" y="474"/>
      <point x="872" y="250" type="curve" smooth="yes"/>
      <point x="872" y="26"/>
      <point x="719" y="-132"/>
      <point x="500" y="-132" type="curve" smooth="yes"/>
    </contour>
    <contour>
      <point x="702" y="611" type="line"/>
      <point x="732" y="663"/>
      <point x="765" y="688"/>
      <point x="800" y="688" type="curve" smooth="yes"/>
      <point x="856" y="688"/>
      <point x="938" y="606"/>
      <point x="938" y="550" type="curve" smooth="yes"/>
      <point x="938" y="515"/>
      <point x="913" y="482"/>
      <point x="861" y="452" type="curve"/>
      <point x="882" y="401" type="line"/>
      <point x="960" y="449"/>
      <point x="990" y="501"/>
      <point x="990" y="550" type="curve" smooth="yes"/>
      <point x="990" y="632"/>
      <point x="881" y="740"/>
      <point x="801" y="740" type="curve" smooth="yes"/>
      <point x="752" y="740"/>
      <point x="701" y="710"/>
      <point x="652" y="631" type="curve"/>
    </contour>
    <contour>
      <point x="299" y="-111" type="line"/>
      <point x="269" y="-163"/>
      <point x="236" y="-188"/>
      <point x="201" y="-188" type="curve" smooth="yes"/>
      <point x="145" y="-188"/>
      <point x="63" y="-106"/>
      <point x="63" y="-50" type="curve" smooth="yes"/>
      <point x="63" y="-15"/>
      <point x="88" y="18"/>
      <point x="140" y="48" type="curve"/>
      <point x="119" y="99" type="line"/>
      <point x="42" y="51"/>
      <point x="11" y="-1"/>
      <point x="11" y="-50" type="curve" smooth="yes"/>
      <point x="11" y="-132"/>
      <point x="120" y="-240"/>
      <point x="200" y="-240" type="curve" smooth="yes"/>
      <point x="249" y="-240"/>
      <point x="300" y="-210"/>
      <point x="349" y="-131" type="curve"/>
    </contour>
    <contour>
      <point x="500" y="235" type="curve" smooth="yes"/>
      <point x="521" y="235"/>
      <point x="513" y="286"/>
      <point x="549" y="327" type="curve" smooth="yes"/>
      <point x="592" y="376"/>
      <point x="674" y="400"/>
      <point x="674" y="454" type="curve" smooth="yes"/>
      <point x="674" y="507"/>
      <point x="633" y="534"/>
      <point x="592" y="534" type="curve" smooth="yes"/>
      <point x="500" y="534"/>
      <point x="535" y="435"/>
      <point x="499" y="352" type="curve" smooth="yes"/>
      <point x="475" y="297"/>
      <point x="449" y="292"/>
      <point x="449" y="269" type="curve" smooth="yes"/>
      <point x="449" y="262"/>
      <point x="464" y="259"/>
      <point x="478" y="259" type="curve" smooth="yes"/>
      <point x="491" y="259"/>
      <point x="480" y="235"/>
    </contour>
    <contour>
      <point x="329" y="476" type="curve"/>
      <point x="322" y="473"/>
      <point x="314" y="468"/>
      <point x="309" y="459" type="curve"/>
      <point x="341" y="414" type="line"/>
      <point x="336" y="408" type="line"/>
      <point x="295" y="440" type="line"/>
      <point x="286" y="435"/>
      <point x="278" y="431"/>
      <point x="274" y="421" type="curve"/>
      <point x="310" y="382" type="line"/>
      <point x="305" y="376" type="line"/>
      <point x="261" y="407" type="line"/>
      <point x="252" y="403"/>
      <point x="248" y="393"/>
      <point x="244" y="383" type="curve"/>
      <point x="287" y="350" type="line"/>
      <point x="283" y="344" type="line"/>
      <point x="233" y="360" type="line"/>
      <point x="220" y="286"/>
      <point x="243" y="225"/>
      <point x="285" y="164" type="curve"/>
      <point x="296" y="170"/>
      <point x="304" y="181"/>
      <point x="299" y="198" type="curve"/>
      <point x="319" y="196"/>
      <point x="331" y="200"/>
      <point x="332" y="213" type="curve"/>
      <point x="304" y="236"/>
      <point x="280" y="254"/>
      <point x="276" y="280" type="curve"/>
      <point x="305" y="333"/>
      <point x="388" y="384"/>
      <point x="388" y="424" type="curve" smooth="yes"/>
      <point x="388" y="449"/>
      <point x="368" y="476"/>
    </contour>
    <contour>
      <point x="659" y="-6" type="curve"/>
      <point x="666" y="-3"/>
      <point x="674" y="2"/>
      <point x="679" y="11" type="curve"/>
      <point x="647" y="56" type="line"/>
      <point x="652" y="62" type="line"/>
      <point x="693" y="30" type="line"/>
      <point x="702" y="35"/>
      <point x="710" y="39"/>
      <point x="714" y="49" type="curve"/>
      <point x="678" y="88" type="line"/>
      <point x="683" y="94" type="line"/>
      <point x="727" y="63" type="line"/>
      <point x="736" y="67"/>
      <point x="740" y="77"/>
      <point x="744" y="87" type="curve"/>
      <point x="701" y="120" type="line"/>
      <point x="705" y="126" type="line"/>
      <point x="755" y="110" type="line"/>
      <point x="768" y="184"/>
      <point x="745" y="245"/>
      <point x="703" y="306" type="curve"/>
      <point x="692" y="300"/>
      <point x="684" y="289"/>
      <point x="689" y="272" type="curve"/>
      <point x="669" y="274"/>
      <point x="657" y="270"/>
      <point x="656" y="257" type="curve"/>
      <point x="684" y="234"/>
      <point x="708" y="216"/>
      <point x="712" y="190" type="curve"/>
      <point x="683" y="137"/>
      <point x="600" y="86"/>
      <point x="600" y="46" type="curve" smooth="yes"/>
      <point x="600" y="21"/>
      <point x="620" y="-6"/>
    </contour>
    <contour>
      <point x="422" y="-20" type="curve" smooth="yes"/>
      <point x="460" y="-20"/>
      <point x="491" y="10"/>
      <point x="491" y="47" type="curve" smooth="yes"/>
      <point x="491" y="83"/>
      <point x="460" y="113"/>
      <point x="422" y="113" type="curve" smooth="yes"/>
      <point x="384" y="113"/>
      <point x="353" y="83"/>
      <point x="353" y="47" type="curve" smooth="yes"/>
      <point x="353" y="10"/>
      <point x="384" y="-20"/>
    </contour>
    <contour>
      <point x="411" y="74" type="curve" smooth="yes"/>
      <point x="406" y="74"/>
      <point x="402" y="78"/>
      <point x="402" y="83" type="curve" smooth="yes"/>
      <point x="402" y="88"/>
      <point x="406" y="92"/>
      <point x="411" y="92" type="curve" smooth="yes"/>
      <point x="416" y="92"/>
      <point x="420" y="88"/>
      <point x="420" y="83" type="curve" smooth="yes"/>
      <point x="420" y="78"/>
      <point x="416" y="74"/>
    </contour>
    <contour>
      <point x="391" y="35" type="curve" smooth="yes"/>
      <point x="385" y="35"/>
      <point x="381" y="39"/>
      <point x="381" y="44" type="curve" smooth="yes"/>
      <point x="381" y="49"/>
      <point x="385" y="53"/>
      <point x="391" y="53" type="curve" smooth="yes"/>
      <point x="397" y="53"/>
      <point x="401" y="49"/>
      <point x="401" y="44" type="curve" smooth="yes"/>
      <point x="401" y="39"/>
      <point x="397" y="35"/>
    </contour>
    <contour>
      <point x="434" y="43" type="curve" smooth="yes"/>
      <point x="428" y="43"/>
      <point x="423" y="48"/>
      <point x="423" y="54" type="curve" smooth="yes"/>
      <point x="423" y="60"/>
      <point x="428" y="65"/>
      <point x="434" y="65" type="curve" smooth="yes"/>
      <point x="441" y="65"/>
      <point x="446" y="60"/>
      <point x="446" y="54" type="curve" smooth="yes"/>
      <point x="446" y="48"/>
      <point x="441" y="43"/>
    </contour>
    <contour>
      <point x="436" y="-5" type="curve" smooth="yes"/>
      <point x="430" y="-5"/>
      <point x="425" y="0"/>
      <point x="425" y="6" type="curve" smooth="yes"/>
      <point x="425" y="13"/>
      <point x="430" y="18"/>
      <point x="436" y="18" type="curve" smooth="yes"/>
      <point x="442" y="18"/>
      <point x="448" y="13"/>
      <point x="448" y="6" type="curve" smooth="yes"/>
      <point x="448" y="0"/>
      <point x="442" y="-5"/>
    </contour>
  </outline>
</glyph>
<glyph name="persondoingcartwheel" format="1">
  <advance width="1000"/>
  <outline>
    <contour>
      <point x="415" y="-140" type="line"/>
      <point x="453" y="2" type="line"/>
      <point x="519" y="71" type="line"/>
      <point x="636" y="90" type="line"/>
      <point x="728" y="22" type="line"/>
      <point x="807" y="-75" type="line"/>
      <point x="869" y="-47" type="line"/>
      <point x="774" y="95" type="line"/>
      <point x="620" y="231" type="line"/>
      <point x="613" y="231" type="line"/>
      <point x="563" y="348" type="line"/>
      <point x="655" y="473" type="line"/>
      <point x="685" y="517" type="line"/>
      <point x="774" y="716" type="line"/>
      <point x="718" y="750" type="line"/>
      <point x="587" y="536" type="line"/>
      <point x="457" y="405" type="line"/>
      <point x="513" y="417" type="line"/>
      <point x="327" y="491" type="line"/>
      <point x="134" y="612" type="line"/>
      <point x="88" y="541" type="line"/>
      <point x="279" y="417" type="line"/>
      <point x="387" y="363" type="line"/>
      <point x="407" y="311" type="line"/>
      <point x="432" y="248" type="line"/>
      <point x="431" y="203" type="line"/>
      <point x="398" y="131" type="line"/>
      <point x="386" y="67" type="line"/>
      <point x="355" y="-126" type="line"/>
    </contour>
    <contour>
      <point x="590" y="-111" type="curve" smooth="yes"/>
      <point x="633" y="-111"/>
      <point x="667" y="-77"/>
      <point x="667" y="-34" type="curve" smooth="yes"/>
      <point x="667" y="9"/>
      <point x="632" y="43"/>
      <point x="590" y="43" type="curve" smooth="yes"/>
      <point x="549" y="43"/>
      <point x="513" y="9"/>
      <point x="513" y="-34" type="curve" smooth="yes"/>
      <point x="513" y="-77"/>
      <point x="547" y="-111"/>
    </contour>
    <contour>
      <point x="855" y="-86" type="curve" smooth="yes"/>
      <point x="830" y="-86"/>
      <point x="809" y="-106"/>
      <point x="809" y="-132" type="curve" smooth="yes"/>
      <point x="809" y="-158"/>
      <point x="829" y="-178"/>
      <point x="855" y="-178" type="curve" smooth="yes"/>
      <point x="881" y="-178"/>
      <point x="901" y="-158"/>
      <point x="901" y="-132" type="curve" smooth="yes"/>
      <point x="901" y="-106"/>
      <point x="880" y="-86"/>
    </contour>
    <contour>
      <point x="369" y="-250" type="curve" smooth="yes"/>
      <point x="395" y="-250"/>
      <point x="415" y="-230"/>
      <point x="415" y="-204" type="curve" smooth="yes"/>
      <point x="415" y="-178"/>
      <point x="394" y="-158"/>
      <point x="369" y="-158" type="curve" smooth="yes"/>
      <point x="344" y="-158"/>
      <point x="323" y="-178"/>
      <point x="323" y="-204" type="curve" smooth="yes"/>
      <point x="323" y="-230"/>
      <point x="343" y="-250"/>
    </contour>
  </outline>
</glyph>
<glyph name="polowater.copy_1" format="1">
  <advance width="1000"/>
  <outline>
    <contour>
      <point x="500" y="-224" type="curve" smooth="yes"/>
      <point x="774" y="-224"/>
      <point x="972" y="-24"/>
      <point x="972" y="250" type="curve" smooth="yes"/>
      <point x="972" y="524"/>
      <point x="774" y="724"/>
      <point x="500" y="724" type="curve" smooth="yes"/>
      <point x="226" y="724"/>
      <point x="28" y="524"/>
      <point x="28" y="250" type="curve" smooth="yes"/>
      <point x="28" y="-24"/>
      <point x="226" y="-224"/>
    </contour>
    <contour>
      <point x="500" y="-172" type="curve" smooth="yes"/>
      <point x="258" y="-172"/>
      <point x="88" y="2"/>
      <point x="88" y="250" type="curve" smooth="yes"/>
      <point x="88" y="498"/>
      <point x="258" y="672"/>
      <point x="500" y="672" type="curve" smooth="yes"/>
      <point x="742" y="672"/>
      <point x="912" y="498"/>
      <point x="912" y="250" type="curve" smooth="yes"/>
      <point x="912" y="2"/>
      <point x="742" y="-172"/>
    </contour>
    <contour>
      <point x="208" y="570" type="line"/>
      <point x="348" y="509"/>
      <point x="438" y="375"/>
      <point x="488" y="230" type="curve"/>
      <point x="542" y="270" type="line"/>
      <point x="492" y="415"/>
      <point x="402" y="549"/>
      <point x="262" y="610" type="curve"/>
    </contour>
    <contour>
      <point x="917" y="347" type="line"/>
      <point x="794" y="256"/>
      <point x="633" y="244"/>
      <point x="482" y="274" type="curve"/>
      <point x="489" y="207" type="line"/>
      <point x="640" y="178"/>
      <point x="801" y="189"/>
      <point x="924" y="280" type="curve"/>
    </contour>
    <contour>
      <point x="379" y="-170" type="line"/>
      <point x="361" y="-18"/>
      <point x="432" y="127"/>
      <point x="533" y="243" type="curve"/>
      <point x="471" y="270" type="line"/>
      <point x="371" y="154"/>
      <point x="300" y="9"/>
      <point x="317" y="-143" type="curve"/>
    </contour>
  </outline>
</glyph>
<glyph name="polowater" format="1">
  <advance width="1000"/>
  <outline>
    <contour>
      <point x="424" y="318" type="curve" smooth="yes"/>
      <point x="465" y="318"/>
      <point x="501" y="352"/>
      <point x="501" y="395" type="curve" smooth="yes"/>
      <point x="501" y="438"/>
      <point x="467" y="472"/>
      <point x="424" y="472" type="curve" smooth="yes"/>
      <point x="381" y="472"/>
      <point x="347" y="438"/>
      <point x="347" y="395" type="curve" smooth="yes"/>
      <point x="347" y="352"/>
      <point x="382" y="318"/>
    </contour>
    <contour>
      <point x="644" y="428" type="curve" smooth="yes"/>
      <point x="604" y="428"/>
      <point x="580" y="458"/>
      <point x="580" y="494" type="curve" smooth="yes"/>
      <point x="580" y="530"/>
      <point x="604" y="560"/>
      <point x="644" y="560" type="curve" smooth="yes"/>
      <point x="684" y="560"/>
      <point x="708" y="530"/>
      <point x="708" y="494" type="curve" smooth="yes"/>
      <point x="708" y="458"/>
      <point x="684" y="428"/>
    </contour>
    <contour>
      <point x="644" y="408" type="curve" smooth="yes"/>
      <point x="694" y="408"/>
      <point x="732" y="446"/>
      <point x="732" y="494" type="curve" smooth="yes"/>
      <point x="732" y="542"/>
      <point x="694" y="580"/>
      <point x="644" y="580" type="curve" smooth="yes"/>
      <point x="594" y="580"/>
      <point x="556" y="542"/>
      <point x="556" y="494" type="curve" smooth="yes"/>
      <point x="556" y="446"/>
      <point x="594" y="408"/>
    </contour>
    <contour>
      <point x="583" y="168" type="line"/>
      <point x="656" y="126" type="line"/>
      <point x="649" y="153"/>
      <point x="643" y="180"/>
      <point x="632" y="213" type="curve"/>
      <point x="633" y="218" type="line"/>
      <point x="670" y="220"/>
      <point x="698" y="228"/>
      <point x="736" y="230" type="curve" smooth="yes"/>
      <point x="755" y="230"/>
      <point x="764" y="240"/>
      <point x="768" y="254" type="curve"/>
      <point x="829" y="407" type="line"/>
      <point x="769" y="431" type="line"/>
      <point x="711" y="319" type="line"/>
      <point x="656" y="323"/>
      <point x="612" y="326"/>
      <point x="565" y="320" type="curve"/>
      <point x="418" y="271" type="line"/>
      <point x="396" y="235"/>
      <point x="382" y="190"/>
      <point x="375" y="148" type="curve"/>
      <point x="451" y="111" type="line"/>
      <point x="452" y="114"/>
      <point x="453" y="117"/>
      <point x="454" y="120" type="curve"/>
      <point x="461" y="120" type="line"/>
    </contour>
    <contour>
      <point x="173" y="95" type="curve" smooth="yes"/>
      <point x="240" y="95"/>
      <point x="266" y="153"/>
      <point x="309" y="153" type="curve" smooth="yes"/>
      <point x="352" y="153"/>
      <point x="378" y="95"/>
      <point x="445" y="95" type="curve" smooth="yes"/>
      <point x="512" y="95"/>
      <point x="538" y="153"/>
      <point x="581" y="153" type="curve" smooth="yes"/>
      <point x="624" y="153"/>
      <point x="650" y="95"/>
      <point x="717" y="95" type="curve" smooth="yes"/>
      <point x="784" y="95"/>
      <point x="810" y="153"/>
      <point x="853" y="153" type="curve" smooth="yes"/>
      <point x="889" y="153"/>
      <point x="923" y="127"/>
      <point x="949" y="84" type="curve"/>
      <point x="979" y="98" type="line"/>
      <point x="936" y="162"/>
      <point x="893" y="185"/>
      <point x="851" y="185" type="curve" smooth="yes"/>
      <point x="784" y="185"/>
      <point x="758" y="127"/>
      <point x="715" y="127" type="curve" smooth="yes"/>
      <point x="672" y="127"/>
      <point x="646" y="185"/>
      <point x="579" y="185" type="curve" smooth="yes"/>
      <point x="512" y="185"/>
      <point x="486" y="127"/>
      <point x="443" y="127" type="curve" smooth="yes"/>
      <point x="400" y="127"/>
      <point x="374" y="185"/>
      <point x="307" y="185" type="curve" smooth="yes"/>
      <point x="240" y="185"/>
      <point x="214" y="127"/>
      <point x="171" y="127" type="curve" smooth="yes"/>
      <point x="134" y="127"/>
      <point x="101" y="152"/>
      <point x="75" y="196" type="curve"/>
      <point x="45" y="182" type="line"/>
      <point x="88" y="118"/>
      <point x="131" y="95"/>
    </contour>
    <contour>
      <point x="173" y="-5" type="curve" smooth="yes"/>
      <point x="240" y="-5"/>
      <point x="266" y="53"/>
      <point x="309" y="53" type="curve" smooth="yes"/>
      <point x="352" y="53"/>
      <point x="378" y="-5"/>
      <point x="445" y="-5" type="curve" smooth="yes"/>
      <point x="512" y="-5"/>
      <point x="538" y="53"/>
      <point x="581" y="53" type="curve" smooth="yes"/>
      <point x="624" y="53"/>
      <point x="650" y="-5"/>
      <point x="717" y="-5" type="curve" smooth="yes"/>
      <point x="784" y="-5"/>
      <point x="810" y="53"/>
      <point x="853" y="53" type="curve" smooth="yes"/>
      <point x="889" y="53"/>
      <point x="923" y="27"/>
      <point x="949" y="-16" type="curve"/>
      <point x="979" y="-2" type="line"/>
      <point x="936" y="62"/>
      <point x="893" y="85"/>
      <point x="851" y="85" type="curve" smooth="yes"/>
      <point x="784" y="85"/>
      <point x="758" y="27"/>
      <point x="715" y="27" type="curve" smooth="yes"/>
      <point x="672" y="27"/>
      <point x="646" y="85"/>
      <point x="579" y="85" type="curve" smooth="yes"/>
      <point x="512" y="85"/>
      <point x="486" y="27"/>
      <point x="443" y="27" type="curve" smooth="yes"/>
      <point x="400" y="27"/>
      <point x="374" y="85"/>
      <point x="307" y="85" type="curve" smooth="yes"/>
      <point x="240" y="85"/>
      <point x="214" y="27"/>
      <point x="171" y="27" type="curve" smooth="yes"/>
      <point x="134" y="27"/>
      <point x="101" y="52"/>
      <point x="75" y="96" type="curve"/>
      <point x="45" y="82" type="line"/>
      <point x="88" y="18"/>
      <point x="131" y="-5"/>
    </contour>
    <contour>
      <point x="173" y="-105" type="curve" smooth="yes"/>
      <point x="240" y="-105"/>
      <point x="266" y="-47"/>
      <point x="309" y="-47" type="curve" smooth="yes"/>
      <point x="352" y="-47"/>
      <point x="378" y="-105"/>
      <point x="445" y="-105" type="curve" smooth="yes"/>
      <point x="512" y="-105"/>
      <point x="538" y="-47"/>
      <point x="581" y="-47" type="curve" smooth="yes"/>
      <point x="624" y="-47"/>
      <point x="650" y="-105"/>
      <point x="717" y="-105" type="curve" smooth="yes"/>
      <point x="784" y="-105"/>
      <point x="810" y="-47"/>
      <point x="853" y="-47" type="curve" smooth="yes"/>
      <point x="889" y="-47"/>
      <point x="923" y="-73"/>
      <point x="949" y="-116" type="curve"/>
      <point x="979" y="-102" type="line"/>
      <point x="936" y="-38"/>
      <point x="893" y="-15"/>
      <point x="851" y="-15" type="curve" smooth="yes"/>
      <point x="784" y="-15"/>
      <point x="758" y="-73"/>
      <point x="715" y="-73" type="curve" smooth="yes"/>
      <point x="672" y="-73"/>
      <point x="646" y="-15"/>
      <point x="579" y="-15" type="curve" smooth="yes"/>
      <point x="512" y="-15"/>
      <point x="486" y="-73"/>
      <point x="443" y="-73" type="curve" smooth="yes"/>
      <point x="400" y="-73"/>
      <point x="374" y="-15"/>
      <point x="307" y="-15" type="curve" smooth="yes"/>
      <point x="240" y="-15"/>
      <point x="214" y="-73"/>
      <point x="171" y="-73" type="curve" smooth="yes"/>
      <point x="134" y="-73"/>
      <point x="101" y="-48"/>
      <point x="75" y="-4" type="curve"/>
      <point x="45" y="-18" type="line"/>
      <point x="88" y="-82"/>
      <point x="131" y="-105"/>
    </contour>
    <contour>
      <point x="866" y="491" type="curve"/>
      <point x="870" y="526"/>
      <point x="820" y="550"/>
      <point x="794" y="530" type="curve" smooth="yes"/>
      <point x="770" y="511"/>
      <point x="781" y="492"/>
      <point x="777" y="466" type="curve"/>
      <point x="798" y="452"/>
      <point x="818" y="446"/>
      <point x="837" y="441" type="curve"/>
      <point x="845" y="451"/>
      <point x="860" y="474"/>
    </contour>
  </outline>
</glyph>
<glyph name="rhinoceros" format="1">
  <advance width="1000"/>
  <outline>
    <contour>
      <point x="932" y="347" type="curve"/>
      <point x="910" y="536"/>
      <point x="783" y="617"/>
      <point x="571" y="617" type="curve" smooth="yes"/>
      <point x="561" y="617"/>
      <point x="551" y="617"/>
      <point x="541" y="617" type="curve"/>
      <point x="541" y="617"/>
      <point x="541" y="617"/>
      <point x="541" y="617" type="curve" smooth="yes"/>
      <point x="419" y="709"/>
      <point x="147" y="678"/>
      <point x="86" y="588" type="curve" smooth="yes"/>
      <point x="2" y="461"/>
      <point x="55" y="11"/>
      <point x="86" y="-50" type="curve" smooth="yes"/>
      <point x="117" y="-111"/>
      <point x="207" y="-142"/>
      <point x="237" y="-111" type="curve" smooth="yes"/>
      <point x="268" y="-80"/>
      <point x="237" y="-80"/>
      <point x="207" y="-19" type="curve" smooth="yes"/>
      <point x="185" y="24"/>
      <point x="195" y="132"/>
      <point x="214" y="199" type="curve"/>
      <point x="215" y="195"/>
      <point x="216" y="191"/>
      <point x="216" y="187" type="curve"/>
      <point x="227" y="113"/>
      <point x="268" y="-5"/>
      <point x="268" y="-65" type="curve" smooth="yes"/>
      <point x="268" y="-157"/>
      <point x="322" y="-171"/>
      <point x="389" y="-171" type="curve" smooth="yes"/>
      <point x="456" y="-171"/>
      <point x="511" y="-157"/>
      <point x="511" y="-65" type="curve" smooth="yes"/>
      <point x="511" y="-59"/>
      <point x="511" y="-53"/>
      <point x="511" y="-47" type="curve"/>
      <point x="530" y="-49"/>
      <point x="550" y="-50"/>
      <point x="571" y="-50" type="curve" smooth="yes"/>
      <point x="584" y="-50"/>
      <point x="597" y="-50"/>
      <point x="609" y="-49" type="curve"/>
      <point x="609" y="-54"/>
      <point x="609" y="-60"/>
      <point x="609" y="-65" type="curve" smooth="yes"/>
      <point x="609" y="-157"/>
      <point x="663" y="-171"/>
      <point x="730" y="-171" type="curve" smooth="yes"/>
      <point x="797" y="-171"/>
      <point x="851" y="-157"/>
      <point x="851" y="-65" type="curve" smooth="yes"/>
      <point x="851" y="-19"/>
      <point x="882" y="55"/>
      <point x="904" y="116" type="curve"/>
      <point x="909" y="124"/>
      <point x="912" y="134"/>
      <point x="915" y="144" type="curve"/>
      <point x="918" y="110"/>
      <point x="920" y="75"/>
      <point x="920" y="36" type="curve" smooth="yes"/>
      <point x="920" y="22"/>
      <point x="932" y="10"/>
      <point x="946" y="10" type="curve" smooth="yes"/>
      <point x="961" y="10"/>
      <point x="972" y="22"/>
      <point x="972" y="36" type="curve" smooth="yes"/>
      <point x="972" y="168"/>
      <point x="952" y="274"/>
    </contour>
    <contour>
      <point x="541" y="607" type="curve"/>
      <point x="541" y="607"/>
      <point x="662" y="465"/>
      <point x="583" y="310" type="curve" smooth="yes"/>
      <point x="491" y="123"/>
      <point x="310" y="155"/>
      <point x="273" y="155" type="curve" smooth="yes"/>
      <point x="248" y="155"/>
      <point x="222" y="207"/>
      <point x="273" y="207" type="curve" smooth="yes"/>
      <point x="355" y="207"/>
      <point x="481" y="207"/>
      <point x="558" y="336" type="curve" smooth="yes"/>
      <point x="635" y="465"/>
      <point x="541" y="607"/>
    </contour>
    <contour>
      <point x="248" y="385" type="curve" smooth="yes"/>
      <point x="248" y="364"/>
      <point x="230" y="346"/>
      <point x="209" y="346" type="curve" smooth="yes"/>
      <point x="187" y="346"/>
      <point x="170" y="364"/>
      <point x="170" y="385" type="curve" smooth="yes"/>
      <point x="170" y="406"/>
      <point x="187" y="423"/>
      <point x="209" y="423" type="curve" smooth="yes"/>
      <point x="230" y="423"/>
      <point x="248" y="406"/>
    </contour>
  </outline>
</glyph>
<glyph name="rifle" format="1">
  <advance width="1000"/>
  <outline>
    <contour>
      <point x="711" y="232" type="line"/>
      <point x="754" y="292" type="line"/>
      <point x="710" y="323" type="line"/>
      <point x="670" y="338" type="line"/>
      <point x="610" y="380" type="line"/>
      <point x="550" y="442" type="line"/>
      <point x="495" y="481" type="line"/>
      <point x="446" y="411" type="line"/>
      <point x="503" y="372" type="line"/>
      <point x="579" y="336" type="line"/>
      <point x="640" y="293" type="line"/>
      <point x="666" y="262" type="line"/>
    </contour>
    <contour>
      <point x="831" y="-166" type="line"/>
      <point x="944" y="-5" type="line"/>
      <point x="732" y="143" type="line"/>
      <point x="691" y="125"/>
      <point x="646" y="172"/>
      <point x="643" y="238" type="curve"/>
      <point x="73" y="636" type="line"/>
      <point x="39" y="587" type="line"/>
      <point x="313" y="395" type="line"/>
      <point x="293" y="366"/>
      <point x="322" y="339"/>
      <point x="381" y="297" type="curve" smooth="yes"/>
      <point x="588" y="147" type="line"/>
      <point x="599" y="126"/>
      <point x="594" y="83"/>
      <point x="588" y="62" type="curve"/>
      <point x="605" y="45"/>
      <point x="629" y="40"/>
      <point x="653" y="40" type="curve"/>
    </contour>
    <contour>
      <point x="524" y="94" type="line"/>
      <point x="556" y="111"/>
      <point x="586" y="141"/>
      <point x="585" y="172" type="curve"/>
      <point x="548" y="199" type="line"/>
      <point x="547" y="163"/>
      <point x="534" y="142"/>
      <point x="501" y="122" type="curve"/>
    </contour>
  </outline>
</glyph>
<glyph name="saladgreen" format="1">
  <advance width="1000"/>
  <outline>
    <contour>
      <point x="788" y="-222"/>
      <point x="1038" y="-56"/>
      <point x="1038" y="313" type="curve" smooth="yes"/>
      <point x="1038" y="382"/>
      <point x="1014" y="440"/>
      <point x="969" y="487" type="curve"/>
      <point x="954" y="592"/>
      <point x="890" y="620"/>
      <point x="828" y="620" type="curve" smooth="yes"/>
      <point x="797" y="620"/>
      <point x="766" y="616"/>
      <point x="738" y="601" type="curve"/>
      <point x="717" y="705"/>
      <point x="592" y="750"/>
      <point x="489" y="687" type="curve"/>
      <point x="384" y="737"/>
      <point x="282" y="715"/>
      <point x="220" y="632" type="curve"/>
      <point x="119" y="630"/>
      <point x="26" y="566"/>
      <point x="22" y="476" type="curve"/>
      <point x="-17" y="431"/>
      <point x="-38" y="377"/>
      <point x="-38" y="313" type="curve" smooth="yes"/>
      <point x="-38" y="-56"/>
      <point x="212" y="-222"/>
      <point x="500" y="-222" type="curve" smooth="yes"/>
    </contour>
    <contour>
      <point x="253" y="-172"/>
      <point x="18" y="-33"/>
      <point x="18" y="300" type="curve" smooth="yes"/>
      <point x="18" y="321"/>
      <point x="21" y="340"/>
      <point x="26" y="359" type="curve"/>
      <point x="31" y="334"/>
      <point x="38" y="308"/>
      <point x="48" y="283" type="curve"/>
      <point x="106" y="188"/>
      <point x="241" y="138"/>
      <point x="500" y="138" type="curve" smooth="yes"/>
      <point x="759" y="138"/>
      <point x="894" y="187"/>
      <point x="952" y="283" type="curve"/>
      <point x="960" y="317"/>
      <point x="965" y="349"/>
      <point x="968" y="377" type="curve"/>
      <point x="977" y="353"/>
      <point x="982" y="327"/>
      <point x="982" y="300" type="curve" smooth="yes"/>
      <point x="982" y="-33"/>
      <point x="747" y="-172"/>
      <point x="500" y="-172" type="curve" smooth="yes"/>
    </contour>
    <contour>
      <point x="178" y="188"/>
      <point x="72" y="272"/>
      <point x="72" y="408" type="curve" smooth="yes"/>
      <point x="72" y="516"/>
      <point x="152" y="586"/>
      <point x="258" y="586" type="curve"/>
      <point x="311" y="665"/>
      <point x="379" y="688"/>
      <point x="496" y="637" type="curve"/>
      <point x="576" y="706"/>
      <point x="704" y="641"/>
      <point x="702" y="543" type="curve"/>
      <point x="728" y="556"/>
      <point x="770" y="579"/>
      <point x="820" y="579" type="curve" smooth="yes"/>
      <point x="889" y="579"/>
      <point x="928" y="535"/>
      <point x="928" y="408" type="curve" smooth="yes"/>
      <point x="928" y="272"/>
      <point x="822" y="188"/>
      <point x="500" y="188" type="curve" smooth="yes"/>
    </contour>
    <contour>
      <point x="184" y="276" type="line"/>
      <point x="53" y="431"/>
      <point x="252" y="598"/>
      <point x="383" y="443" type="curve"/>
    </contour>
    <contour>
      <point x="234" y="370" type="line"/>
      <point x="207" y="382" type="line"/>
      <point x="247" y="390" type="line"/>
      <point x="241" y="418" type="line"/>
      <point x="269" y="403" type="line"/>
      <point x="280" y="439" type="line"/>
      <point x="290" y="413" type="line"/>
      <point x="319" y="435" type="line"/>
      <point x="258" y="491"/>
      <point x="154" y="409"/>
      <point x="200" y="339" type="curve"/>
    </contour>
    <contour>
      <point x="838" y="500" type="line"/>
      <point x="923" y="295"/>
      <point x="647" y="199"/>
      <point x="569" y="402" type="curve"/>
    </contour>
    <contour>
      <point x="639" y="386" type="line"/>
      <point x="680" y="305"/>
      <point x="819" y="350"/>
      <point x="797" y="441" type="curve"/>
      <point x="751" y="421" type="line"/>
      <point x="774" y="399" type="line"/>
      <point x="730" y="405" type="line"/>
      <point x="726" y="375" type="line"/>
      <point x="702" y="400" type="line"/>
      <point x="677" y="367" type="line"/>
      <point x="676" y="398" type="line"/>
    </contour>
    <contour>
      <point x="703" y="543" type="curve"/>
      <point x="703" y="582" type="line"/>
      <point x="578" y="610"/>
      <point x="500" y="536"/>
      <point x="489" y="438" type="curve"/>
      <point x="411" y="420"/>
      <point x="340" y="363"/>
      <point x="322" y="257" type="curve"/>
      <point x="366" y="246" type="line"/>
      <point x="387" y="346"/>
      <point x="448" y="398"/>
      <point x="523" y="400" type="curve"/>
      <point x="541" y="510"/>
      <point x="577" y="567"/>
    </contour>
    <contour>
      <point x="484" y="418" type="curve"/>
      <point x="517" y="437" type="line"/>
      <point x="530" y="527"/>
      <point x="436" y="581"/>
      <point x="354" y="572" type="curve"/>
      <point x="322" y="608"/>
      <point x="282" y="626"/>
      <point x="236" y="630" type="curve"/>
      <point x="208" y="584" type="line"/>
      <point x="272" y="584"/>
      <point x="304" y="568"/>
      <point x="328" y="533" type="curve"/>
      <point x="414" y="552"/>
      <point x="476" y="485"/>
    </contour>
  </outline>
</glyph>
<glyph name="spoon" format="1">
  <advance width="1000"/>
  <outline>
    <contour>
      <point x="173" y="400"/>
      <point x="244" y="314"/>
      <point x="319" y="314" type="curve" smooth="yes"/>
      <point x="327" y="314"/>
      <point x="336" y="315"/>
      <point x="344" y="317" type="curve"/>
      <point x="288" y="341"/>
      <point x="196" y="431"/>
      <point x="161" y="502" type="curve"/>
    </contour>
    <contour>
      <point x="881" y="-86"/>
      <point x="836" y="-131"/>
      <point x="804" y="-131" type="curve" smooth="yes"/>
      <point x="775" y="-131"/>
      <point x="747" y="-107"/>
      <point x="713" y="-73" type="curve" smooth="yes"/>
      <point x="651" y="-11"/>
      <point x="544" y="138"/>
      <point x="445" y="237" type="curve" smooth="yes"/>
      <point x="388" y="295"/>
      <point x="289" y="234"/>
      <point x="211" y="313" type="curve" smooth="yes"/>
      <point x="175" y="349"/>
      <point x="111" y="439"/>
      <point x="111" y="520" type="curve" smooth="yes"/>
      <point x="111" y="588"/>
      <point x="159" y="639"/>
      <point x="230" y="639" type="curve" smooth="yes"/>
      <point x="311" y="639"/>
      <point x="401" y="575"/>
      <point x="437" y="539" type="curve" smooth="yes"/>
      <point x="516" y="461"/>
      <point x="455" y="362"/>
      <point x="513" y="305" type="curve" smooth="yes"/>
      <point x="612" y="206"/>
      <point x="761" y="99"/>
      <point x="823" y="37" type="curve" smooth="yes"/>
      <point x="857" y="3"/>
      <point x="881" y="-25"/>
      <point x="881" y="-54" type="curve" smooth="yes"/>
    </contour>
    <contour>
      <point x="797" y="-191" type="curve" smooth="yes"/>
      <point x="860" y="-191"/>
      <point x="941" y="-108"/>
      <point x="941" y="-47" type="curve" smooth="yes"/>
      <point x="941" y="-3"/>
      <point x="908" y="37"/>
      <point x="863" y="82" type="curve" smooth="yes"/>
      <point x="799" y="146"/>
      <point x="658" y="245"/>
      <point x="569" y="333" type="curve" smooth="yes"/>
      <point x="511" y="392"/>
      <point x="578" y="483"/>
      <point x="470" y="592" type="curve" smooth="yes"/>
      <point x="420" y="642"/>
      <point x="325" y="698"/>
      <point x="231" y="698" type="curve" smooth="yes"/>
      <point x="126" y="698"/>
      <point x="53" y="624"/>
      <point x="53" y="519" type="curve" smooth="yes"/>
      <point x="53" y="426"/>
      <point x="108" y="330"/>
      <point x="158" y="280" type="curve" smooth="yes"/>
      <point x="267" y="172"/>
      <point x="358" y="239"/>
      <point x="417" y="181" type="curve" smooth="yes"/>
      <point x="505" y="92"/>
      <point x="604" y="-49"/>
      <point x="668" y="-113" type="curve" smooth="yes"/>
      <point x="713" y="-158"/>
      <point x="753" y="-191"/>
    </contour>
  </outline>
</glyph>
<glyph name="trolleyshopping" format="1">
  <advance width="1000"/>
  <outline>
    <contour>
      <point x="740" y="142" type="line"/>
      <point x="822" y="592" type="line"/>
      <point x="980" y="592" type="line"/>
      <point x="980" y="644" type="line"/>
      <point x="780" y="644" type="line"/>
      <point x="758" y="518" type="line"/>
      <point x="116" y="518" type="line"/>
      <point x="176" y="174" type="line"/>
    </contour>
    <contour>
      <point x="702" y="-218" type="curve" smooth="yes"/>
      <point x="746" y="-218"/>
      <point x="782" y="-182"/>
      <point x="782" y="-138" type="curve" smooth="yes"/>
      <point x="782" y="-93"/>
      <point x="746" y="-58"/>
      <point x="702" y="-58" type="curve" smooth="yes"/>
      <point x="658" y="-58"/>
      <point x="622" y="-93"/>
      <point x="622" y="-138" type="curve" smooth="yes"/>
      <point x="622" y="-182"/>
      <point x="658" y="-218"/>
    </contour>
    <contour>
      <point x="288" y="-218" type="curve" smooth="yes"/>
      <point x="332" y="-218"/>
      <point x="368" y="-182"/>
      <point x="368" y="-138" type="curve" smooth="yes"/>
      <point x="368" y="-93"/>
      <point x="332" y="-58"/>
      <point x="288" y="-58" type="curve" smooth="yes"/>
      <point x="244" y="-58"/>
      <point x="208" y="-93"/>
      <point x="208" y="-138" type="curve" smooth="yes"/>
      <point x="208" y="-182"/>
      <point x="244" y="-218"/>
    </contour>
    <contour>
      <point x="698" y="196" type="line"/>
      <point x="220" y="222" type="line"/>
      <point x="180" y="466" type="line"/>
      <point x="746" y="466" type="line"/>
    </contour>
    <contour>
      <point x="742" y="178" type="line"/>
      <point x="692" y="166" type="line"/>
      <point x="734" y="52" type="line"/>
      <point x="220" y="52" type="line"/>
      <point x="220" y="0" type="line"/>
      <point x="750" y="0" type="line" smooth="yes"/>
      <point x="782" y="0"/>
      <point x="796" y="22"/>
      <point x="786" y="52" type="curve" smooth="yes"/>
    </contour>
  </outline>
</glyph>
<glyph name="wrestlers" format="1">
  <advance width="1000"/>
  <outline>
    <contour>
      <point x="390" y="488" type="curve" smooth="yes"/>
      <point x="432" y="488"/>
      <point x="467" y="522"/>
      <point x="467" y="565" type="curve" smooth="yes"/>
      <point x="467" y="608"/>
      <point x="433" y="642"/>
      <point x="390" y="642" type="curve" smooth="yes"/>
      <point x="347" y="642"/>
      <point x="313" y="608"/>
      <point x="313" y="565" type="curve" smooth="yes"/>
      <point x="313" y="522"/>
      <point x="349" y="488"/>
    </contour>
    <contour>
      <point x="605" y="147" type="curve" smooth="yes"/>
      <point x="630" y="147"/>
      <point x="651" y="167"/>
      <point x="651" y="193" type="curve" smooth="yes"/>
      <point x="651" y="219"/>
      <point x="631" y="239"/>
      <point x="605" y="239" type="curve" smooth="yes"/>
      <point x="579" y="239"/>
      <point x="559" y="219"/>
      <point x="559" y="193" type="curve" smooth="yes"/>
      <point x="559" y="167"/>
      <point x="580" y="147"/>
    </contour>
    <contour>
      <point x="915" y="158"/>
      <point x="896" y="201"/>
      <point x="872" y="230" type="curve"/>
      <point x="850" y="292"/>
      <point x="829" y="455"/>
      <point x="737" y="499" type="curve"/>
      <point x="623" y="461" type="line"/>
      <point x="500" y="394" type="line"/>
      <point x="355" y="457" type="line"/>
      <point x="327" y="405" type="line"/>
      <point x="500" y="302" type="line"/>
      <point x="639" y="350" type="line"/>
      <point x="646" y="350" type="line"/>
      <point x="659" y="302"/>
      <point x="703" y="255"/>
      <point x="720" y="193" type="curve"/>
      <point x="666" y="152"/>
      <point x="616" y="113"/>
      <point x="574" y="68" type="curve"/>
      <point x="562" y="59"/>
      <point x="560" y="43"/>
      <point x="564" y="24" type="curve"/>
      <point x="586" y="-48"/>
      <point x="624" y="-111"/>
      <point x="661" y="-187" type="curve"/>
      <point x="724" y="-161" type="line"/>
      <point x="708" y="-93"/>
      <point x="688" y="-46"/>
      <point x="658" y="5" type="curve"/>
      <point x="700" y="32"/>
      <point x="753" y="47"/>
      <point x="792" y="106" type="curve"/>
      <point x="776" y="114" type="line"/>
      <point x="788" y="38"/>
      <point x="814" y="0"/>
      <point x="844" y="-49" type="curve"/>
      <point x="849" y="-68"/>
      <point x="859" y="-85"/>
      <point x="872" y="-100" type="curve"/>
      <point x="908" y="-150"/>
      <point x="926" y="-184"/>
      <point x="974" y="-250" type="curve"/>
      <point x="1031" y="-220" type="line"/>
      <point x="1005" y="-159"/>
      <point x="983" y="-94"/>
      <point x="950" y="-36" type="curve"/>
      <point x="946" y="19"/>
      <point x="913" y="59"/>
      <point x="902" y="118" type="curve"/>
    </contour>
    <contour>
      <point x="629" y="498" type="curve" smooth="yes"/>
      <point x="670" y="498"/>
      <point x="706" y="532"/>
      <point x="706" y="575" type="curve" smooth="yes"/>
      <point x="706" y="618"/>
      <point x="672" y="652"/>
      <point x="629" y="652" type="curve" smooth="yes"/>
      <point x="586" y="652"/>
      <point x="552" y="618"/>
      <point x="552" y="575" type="curve" smooth="yes"/>
      <point x="552" y="532"/>
      <point x="587" y="498"/>
    </contour>
    <contour>
      <point x="274" y="417" type="curve" smooth="yes"/>
      <point x="299" y="417"/>
      <point x="320" y="437"/>
      <point x="320" y="463" type="curve" smooth="yes"/>
      <point x="320" y="489"/>
      <point x="300" y="509"/>
      <point x="274" y="509" type="curve" smooth="yes"/>
      <point x="248" y="509"/>
      <point x="228" y="489"/>
      <point x="228" y="463" type="curve" smooth="yes"/>
      <point x="228" y="437"/>
      <point x="249" y="417"/>
    </contour>
    <contour>
      <point x="103" y="201"/>
      <point x="84" y="158"/>
      <point x="97" y="118" type="curve"/>
      <point x="86" y="59"/>
      <point x="53" y="19"/>
      <point x="49" y="-36" type="curve"/>
      <point x="16" y="-94"/>
      <point x="-6" y="-159"/>
      <point x="-32" y="-220" type="curve"/>
      <point x="25" y="-250" type="line"/>
      <point x="73" y="-184"/>
      <point x="91" y="-150"/>
      <point x="127" y="-100" type="curve"/>
      <point x="140" y="-85"/>
      <point x="150" y="-68"/>
      <point x="155" y="-49" type="curve"/>
      <point x="185" y="0"/>
      <point x="211" y="38"/>
      <point x="223" y="114" type="curve"/>
      <point x="207" y="106" type="line"/>
      <point x="246" y="47"/>
      <point x="299" y="32"/>
      <point x="341" y="5" type="curve"/>
      <point x="311" y="-46"/>
      <point x="291" y="-93"/>
      <point x="275" y="-161" type="curve"/>
      <point x="338" y="-187" type="line"/>
      <point x="375" y="-111"/>
      <point x="413" y="-48"/>
      <point x="435" y="24" type="curve"/>
      <point x="439" y="43"/>
      <point x="437" y="59"/>
      <point x="425" y="68" type="curve"/>
      <point x="383" y="113"/>
      <point x="333" y="152"/>
      <point x="279" y="193" type="curve"/>
      <point x="291" y="236"/>
      <point x="330" y="267"/>
      <point x="343" y="300" type="curve"/>
      <point x="350" y="300" type="line"/>
      <point x="359" y="274"/>
      <point x="366" y="232"/>
      <point x="382" y="214" type="curve"/>
      <point x="521" y="185" type="line"/>
      <point x="550" y="245" type="line"/>
      <point x="433" y="282" type="line"/>
      <point x="432" y="329"/>
      <point x="424" y="395"/>
      <point x="396" y="440" type="curve"/>
      <point x="281" y="487" type="line"/>
      <point x="179" y="438"/>
      <point x="148" y="290"/>
      <point x="127" y="230" type="curve"/>
    </contour>
  </outline>
</glyph>
